<svg xmlns="http://www.w3.org/2000/svg" width="720" height="440" font-family="sans-serif" font-size="12">
<rect width="720" height="440" fill="#fff"/>
<text x="360" y="22" text-anchor="middle" font-size="14" font-weight="600">Thermal: running mean of Z = P/(nkT) — φ = 0.05, kT = 1</text>
<line x1="70" x2="700" y1="385" y2="385" stroke="#e5e5e5"/>
<text x="64" y="389" text-anchor="end">1.03</text>
<text x="70" y="403" text-anchor="middle">3.25</text>
<line x1="70" x2="700" y1="315.99999999999994" y2="315.99999999999994" stroke="#e5e5e5"/>
<text x="64" y="319.99999999999994" text-anchor="end">1.08</text>
<text x="196" y="403" text-anchor="middle">42.6</text>
<line x1="70" x2="700" y1="246.99999999999986" y2="246.99999999999986" stroke="#e5e5e5"/>
<text x="64" y="250.99999999999986" text-anchor="end">1.13</text>
<text x="322" y="403" text-anchor="middle">82.0</text>
<line x1="70" x2="700" y1="178.0000000000001" y2="178.0000000000001" stroke="#e5e5e5"/>
<text x="64" y="182.0000000000001" text-anchor="end">1.17</text>
<text x="447.99999999999994" y="403" text-anchor="middle">121</text>
<line x1="70" x2="700" y1="109.00000000000006" y2="109.00000000000006" stroke="#e5e5e5"/>
<text x="64" y="113.00000000000006" text-anchor="end">1.22</text>
<text x="574.0000000000001" y="403" text-anchor="middle">161</text>
<line x1="70" x2="700" y1="40" y2="40" stroke="#e5e5e5"/>
<text x="64" y="44" text-anchor="end">1.26</text>
<text x="700" y="403" text-anchor="middle">200</text>
<line x1="70" x2="70" y1="40" y2="385" stroke="#333"/>
<line x1="70" x2="700" y1="385" y2="385" stroke="#333"/>
<text x="360" y="428" text-anchor="middle">collisions per particle in the equilibrium window</text>
<text transform="translate(16 220) rotate(-90)" text-anchor="middle">cumulative mean Z</text>
<polyline points="70.0,198.8 80.4,293.4 90.9,321.8 101.3,309.7 111.7,279.8 122.2,260.3 132.6,264.0 143.0,268.9 153.5,253.8 163.9,257.6 174.4,268.1 184.8,270.0 195.2,266.6 205.7,266.3 216.1,262.5 226.5,270.8 237.0,265.1 247.4,265.1 257.9,256.4 268.3,268.7 278.7,267.6 289.2,264.2 299.6,265.0 310.1,263.1 320.5,261.7 330.9,254.7 341.4,261.1 351.8,267.1 362.3,266.6 372.7,271.0 383.1,268.9 393.6,259.9 404.0,257.5 414.5,260.3 424.9,260.6 435.4,261.3 445.8,265.8 456.3,267.6 466.7,267.4 477.2,267.3 487.6,256.2 498.0,258.1 508.5,262.0 518.9,262.5 529.4,263.5 539.8,265.4 550.2,265.0 560.7,263.3 571.1,261.6 581.5,257.2 592.0,260.2 602.4,262.6 612.9,263.8 623.3,264.6 633.7,262.6 644.2,262.4 654.6,263.4 665.1,264.0 675.5,263.7 685.9,262.7 696.3,262.8 700.0,263.4" fill="none" stroke="#8c959f" stroke-width="0.8" opacity="0.45"/>
<polyline points="70.0,187.8 80.5,268.3 90.9,279.3 101.4,219.6 111.8,220.9 122.3,251.2 132.7,270.5 143.2,263.0 153.6,240.4 164.0,238.0 174.5,245.8 184.9,256.8 195.3,259.9 205.8,260.9 216.2,276.2 226.7,267.8 237.1,252.6 247.5,251.1 258.0,251.4 268.4,245.4 278.8,246.6 289.3,261.8 299.7,264.7 310.2,265.2 320.6,262.7 331.1,260.8 341.5,256.2 351.9,257.4 362.4,254.7 372.8,258.0 383.3,263.4 393.7,261.4 404.1,260.8 414.5,261.5 425.0,262.2 435.4,256.5 445.8,261.3 456.3,260.5 466.8,257.9 477.2,260.0 487.6,261.3 498.1,259.6 508.5,259.5 519.0,259.6 529.5,257.2 539.9,260.3 550.4,261.7 560.8,258.9 571.2,259.9 581.7,259.2 592.1,258.2 602.6,260.3 613.0,261.6 623.4,260.5 633.9,260.6 644.3,263.7 654.7,265.2 665.2,261.1 675.6,261.5 686.0,258.4 696.5,259.0 699.7,259.8" fill="none" stroke="#8c959f" stroke-width="0.8" opacity="0.45"/>
<polyline points="70.0,253.4 80.5,287.4 90.9,291.4 101.4,306.3 111.8,306.1 122.2,290.6 132.7,293.9 143.1,272.8 153.6,263.0 164.0,269.7 174.5,268.0 184.9,260.5 195.3,267.7 205.8,271.5 216.2,270.6 226.7,272.0 237.1,277.0 247.6,275.9 258.0,268.8 268.5,263.9 278.9,261.3 289.3,261.4 299.8,262.5 310.2,266.5 320.6,270.1 331.1,274.8 341.5,268.6 351.9,267.2 362.4,263.1 372.8,261.2 383.2,263.7 393.7,264.1 404.1,264.8 414.5,264.3 425.0,266.3 435.4,261.9 445.8,261.4 456.3,265.1 466.7,266.2 477.2,266.2 487.6,266.2 498.1,267.0 508.5,263.3 519.0,260.5 529.4,258.9 539.8,260.1 550.3,264.6 560.7,265.7 571.1,266.6 581.6,265.2 592.0,260.8 602.4,262.0 612.9,262.9 623.3,265.2 633.8,264.8 644.2,263.3 654.6,261.9 665.1,259.8 675.5,261.7 685.9,262.5 696.4,263.4 700.0,263.6" fill="none" stroke="#8c959f" stroke-width="0.8" opacity="0.45"/>
<polyline points="70.0,377.4 80.5,318.7 90.9,301.3 101.3,296.8 111.8,281.6 122.2,274.6 132.7,277.7 143.1,275.9 153.5,287.9 164.0,282.1 174.4,278.7 184.9,271.5 195.3,278.5 205.7,267.4 216.1,260.6 226.6,266.8 237.0,265.2 247.4,269.3 257.9,268.0 268.3,268.8 278.7,270.0 289.2,273.8 299.6,267.2 310.0,265.8 320.5,256.6 330.9,264.6 341.3,269.0 351.8,270.7 362.2,272.3 372.6,266.6 383.1,268.2 393.5,265.4 404.0,261.9 414.4,263.5 424.9,265.5 435.3,264.0 445.7,266.6 456.2,265.9 466.6,266.9 477.1,264.1 487.5,262.1 497.9,265.6 508.4,271.4 518.8,270.2 529.3,265.7 539.7,262.0 550.1,262.7 560.6,261.9 571.0,265.0 581.4,267.3 591.9,271.8 602.3,268.8 612.7,264.3 623.2,264.2 633.6,264.0 644.0,263.6 654.5,264.5 664.9,264.7 675.3,265.7 685.8,266.5 696.2,267.1 700.0,266.2" fill="none" stroke="#8c959f" stroke-width="0.8" opacity="0.45"/>
<polyline points="70.0,268.4 80.5,305.3 90.9,310.4 101.4,291.6 111.8,288.1 122.2,264.2 132.6,266.4 143.1,282.9 153.5,279.1 163.9,274.4 174.4,261.7 184.8,259.7 195.3,260.2 205.7,262.5 216.2,277.9 226.6,277.8 237.0,265.2 247.5,266.3 257.9,268.0 268.4,265.8 278.8,264.1 289.2,269.6 299.7,270.4 310.1,271.4 320.5,263.4 331.0,262.3 341.5,262.8 351.9,262.9 362.3,268.5 372.8,264.2 383.2,266.5 393.7,266.3 404.1,267.8 414.5,267.7 425.0,264.6 435.4,261.8 445.8,263.6 456.3,261.1 466.7,265.8 477.1,262.6 487.6,264.5 498.0,265.0 508.4,266.3 518.9,269.6 529.3,270.1 539.7,263.7 550.2,262.8 560.6,264.5 571.0,262.2 581.5,263.4 591.9,261.0 602.4,265.8 612.8,265.1 623.2,264.1 633.7,261.7 644.1,263.6 654.5,264.9 665.0,264.3 675.4,265.7 685.8,263.8 696.3,263.7 700.0,263.2" fill="none" stroke="#8c959f" stroke-width="0.8" opacity="0.45"/>
<polyline points="70.0,296.5 80.4,258.9 90.9,254.4 101.3,299.3 111.7,302.3 122.2,296.9 132.6,284.8 143.0,278.1 153.5,264.8 163.9,268.3 174.4,260.7 184.8,262.9 195.3,280.5 205.7,275.3 216.2,281.0 226.6,275.4 237.1,268.7 247.5,268.0 257.9,261.1 268.4,260.4 278.8,265.9 289.3,268.3 299.7,272.7 310.1,269.8 320.6,270.7 331.0,267.7 341.5,259.5 351.9,259.2 362.3,264.3 372.8,268.2 383.2,274.2 393.7,272.5 404.1,269.6 414.6,266.4 425.0,264.9 435.5,267.3 445.9,265.0 456.4,265.1 466.8,265.4 477.2,264.6 487.7,264.3 498.1,266.8 508.6,265.5 519.0,267.4 529.4,266.6 539.9,268.7 550.3,263.6 560.7,263.8 571.1,264.0 581.6,264.1 592.0,263.7 602.5,266.6 612.9,267.7 623.3,268.1 633.8,265.7 644.2,265.3 654.7,264.9 665.1,263.5 675.6,266.1 686.0,265.0 696.4,266.4 699.6,265.0" fill="none" stroke="#8c959f" stroke-width="0.8" opacity="0.45"/>
<polyline points="70.0,47.6 80.4,190.0 90.9,211.1 101.3,239.8 111.8,252.8 122.2,268.7 132.7,238.2 143.1,262.7 153.5,237.2 163.9,250.2 174.4,247.1 184.8,238.7 195.3,249.0 205.7,247.5 216.1,250.6 226.6,253.1 237.0,253.4 247.5,258.4 257.9,258.5 268.4,259.5 278.8,254.7 289.3,257.5 299.7,249.4 310.1,252.4 320.6,254.8 331.0,257.7 341.5,250.7 351.9,254.5 362.3,260.4 372.8,259.2 383.2,256.7 393.7,259.1 404.1,255.6 414.5,259.5 425.0,260.4 435.4,258.5 445.8,255.8 456.3,254.7 466.7,251.2 477.2,255.2 487.6,259.4 498.0,261.4 508.5,260.3 518.9,260.2 529.4,256.6 539.8,253.4 550.3,257.2 560.7,258.1 571.2,259.4 581.6,258.9 592.0,259.9 602.5,256.9 612.9,257.0 623.4,257.6 633.8,258.3 644.2,258.0 654.7,258.0 665.1,260.3 675.6,258.5 686.0,257.9 696.4,258.5 699.6,257.5" fill="none" stroke="#8c959f" stroke-width="0.8" opacity="0.45"/>
<polyline points="70.0,234.1 80.5,179.2 90.9,203.7 101.3,193.4 111.8,223.6 122.2,244.0 132.6,245.1 143.1,252.8 153.5,250.1 163.9,247.6 174.4,249.7 184.8,253.2 195.2,251.8 205.7,249.9 216.1,258.1 226.6,257.8 237.0,256.5 247.4,259.1 257.9,257.3 268.3,255.0 278.8,255.4 289.2,256.3 299.6,257.8 310.1,259.8 320.5,258.8 330.9,259.6 341.4,253.5 351.8,257.9 362.2,259.5 372.7,262.2 383.1,261.8 393.6,257.4 404.0,255.8 414.4,258.5 424.9,256.2 435.3,255.2 445.7,256.3 456.2,260.1 466.6,262.5 477.0,258.6 487.5,258.7 497.9,258.1 508.3,255.6 518.8,260.1 529.2,264.4 539.6,259.8 550.1,261.1 560.5,259.6 570.9,260.1 581.4,259.6 591.8,261.5 602.3,257.5 612.7,261.5 623.1,257.7 633.6,257.0 644.0,258.8 654.4,257.5 664.9,260.0 675.3,262.5 685.8,261.2 696.2,261.0 700.0,260.6" fill="none" stroke="#8c959f" stroke-width="0.8" opacity="0.45"/>
<polyline points="70.0,226.1 80.5,284.8 90.9,319.1 101.4,292.7 111.8,288.0 122.3,264.4 132.7,273.5 143.2,272.0 153.6,288.3 164.0,265.6 174.5,272.7 184.9,263.4 195.4,270.0 205.8,275.9 216.2,272.2 226.7,276.6 237.1,268.3 247.6,264.4 258.0,270.2 268.5,268.9 278.9,273.0 289.3,268.2 299.8,265.3 310.2,270.9 320.6,267.6 331.1,264.8 341.5,264.7 351.9,266.1 362.3,266.1 372.8,265.3 383.2,268.5 393.7,259.3 404.1,263.4 414.6,263.0 425.0,269.6 435.4,264.4 445.9,263.5 456.3,266.8 466.8,264.9 477.2,263.0 487.6,263.7 498.1,259.4 508.5,265.1 518.9,266.4 529.3,264.7 539.8,266.5 550.2,265.0 560.7,261.9 571.1,264.7 581.6,264.6 592.0,259.1 602.4,264.8 612.8,262.4 623.3,266.2 633.7,264.4 644.2,265.1 654.6,263.0 665.0,261.0 675.5,260.3 685.9,264.0 696.3,262.2 700.0,262.3" fill="none" stroke="#8c959f" stroke-width="0.8" opacity="0.45"/>
<polyline points="70.0,246.3 80.5,198.4 90.9,197.8 101.3,244.0 111.8,249.5 122.2,266.3 132.7,271.6 143.1,269.9 153.5,270.1 164.0,259.4 174.4,258.4 184.8,250.5 195.3,265.0 205.7,258.9 216.2,262.8 226.6,261.9 237.0,266.6 247.5,265.4 257.9,261.6 268.4,261.3 278.8,264.0 289.2,272.6 299.7,265.3 310.1,264.3 320.5,262.0 331.0,261.9 341.4,260.0 351.8,263.3 362.3,264.1 372.7,263.1 383.2,266.1 393.6,263.5 404.1,266.0 414.5,264.1 424.9,261.7 435.4,260.2 445.8,258.4 456.2,260.1 466.7,262.2 477.1,264.8 487.5,264.1 498.0,264.5 508.4,265.0 518.8,260.6 529.2,260.9 539.7,261.5 550.1,262.7 560.5,260.6 571.0,263.3 581.4,260.8 591.9,266.4 602.3,262.9 612.7,259.3 623.2,260.7 633.6,259.8 644.0,260.5 654.5,262.3 664.9,262.4 675.3,261.1 685.8,259.8 696.2,258.9 700.0,261.1" fill="none" stroke="#8c959f" stroke-width="0.8" opacity="0.45"/>
<polyline points="70.0,233.6 80.5,258.4 90.9,269.0 101.3,269.3 111.8,269.3 122.2,268.1 132.7,268.6 143.1,269.9 153.5,263.5 164.0,261.3 174.4,261.1 184.8,258.7 195.3,264.9 205.7,263.6 216.2,267.2 226.6,268.0 237.0,263.8 247.5,264.3 257.9,262.1 268.4,261.8 278.8,262.2 289.2,265.4 299.7,264.0 310.1,264.9 320.6,262.8 331.0,262.9 341.4,260.6 351.9,262.6 362.3,264.0 372.7,263.9 383.2,265.8 393.6,262.9 404.1,262.3 414.5,262.9 424.9,263.2 435.4,261.1 445.8,261.8 456.3,262.7 466.7,263.0 477.1,262.6 487.6,262.0 498.0,262.5 508.5,263.4 518.9,263.7 529.3,262.9 539.8,262.1 550.2,262.6 560.6,261.8 571.1,262.7 581.5,262.0 592.0,262.3 602.4,262.8 612.8,262.5 623.3,262.9 633.7,261.9 644.1,262.4 654.6,262.6 665.0,262.1 675.5,262.7 685.9,262.2 696.3,262.3 699.9,262.3" fill="none" stroke="#1f6feb" stroke-width="1.8"/>
<line x1="70.01921229586935" x2="70.01921229586935" y1="294.1471478634422" y2="173.1513385455307" stroke="#1f6feb" opacity="0.6"/>
<line x1="80.46269612552034" x2="80.46269612552034" y1="294.7909898614413" y2="222.08341510613596" stroke="#1f6feb" opacity="0.6"/>
<line x1="90.90329811079091" x2="90.90329811079091" y1="304.05463829785396" y2="234.0220040303025" stroke="#1f6feb" opacity="0.6"/>
<line x1="101.34101825168108" x2="101.34101825168108" y1="298.94301600691426" y2="239.69953779729533" stroke="#1f6feb" opacity="0.6"/>
<line x1="111.77489593339737" x2="111.77489593339737" y1="291.2486228687509" y2="247.27622428504827" stroke="#1f6feb" opacity="0.6"/>
<line x1="122.21773935318603" x2="122.21773935318603" y1="279.6518736870819" y2="256.6095424206902" stroke="#1f6feb" opacity="0.6"/>
<line x1="132.65609990393853" x2="132.65609990393853" y1="280.5487552029357" y2="256.5999192429033" stroke="#1f6feb" opacity="0.6"/>
<line x1="143.10214537303875" x2="143.10214537303875" y1="276.1197822610006" y2="263.697972169926" stroke="#1f6feb" opacity="0.6"/>
<line x1="153.53442203009928" x2="153.53442203009928" y1="276.5359373151245" y2="250.4198475191898" stroke="#1f6feb" opacity="0.6"/>
<line x1="163.97374319564523" x2="163.97374319564523" y1="270.84060362362555" y2="251.70564493451647" stroke="#1f6feb" opacity="0.6"/>
<line x1="174.41018251681078" x2="174.41018251681078" y1="269.0293818070929" y2="253.13237189585087" stroke="#1f6feb" opacity="0.6"/>
<line x1="184.8463016330452" x2="184.8463016330452" y1="265.59191108165874" y2="251.83576310283155" stroke="#1f6feb" opacity="0.6"/>
<line x1="195.28786423310922" x2="195.28786423310922" y1="272.2021875890059" y2="257.6175002437307" stroke="#1f6feb" opacity="0.6"/>
<line x1="205.7284662183798" x2="205.7284662183798" y1="270.5632575594113" y2="256.660154292816" stroke="#1f6feb" opacity="0.6"/>
<line x1="216.16618635926997" x2="216.16618635926997" y1="274.26186129663944" y2="260.226972690863" stroke="#1f6feb" opacity="0.6"/>
<line x1="226.60390650016012" x2="226.60390650016012" y1="273.88178484363675" y2="262.07347180872074" stroke="#1f6feb" opacity="0.6"/>
<line x1="237.0477105347423" x2="237.0477105347423" y1="269.2808670971724" y2="258.4103737229982" stroke="#1f6feb" opacity="0.6"/>
<line x1="247.48831252001284" x2="247.48831252001284" y1="269.14230499309144" y2="259.4355580108897" stroke="#1f6feb" opacity="0.6"/>
<line x1="257.92955491514573" x2="257.92955491514573" y1="266.67053816297965" y2="257.58193122343096" stroke="#1f6feb" opacity="0.6"/>
<line x1="268.37047710534745" x2="268.37047710534745" y1="267.047149829225" y2="256.48343363498657" stroke="#1f6feb" opacity="0.6"/>
<line x1="278.80947806596225" x2="278.80947806596225" y1="267.9647559921951" y2="256.53397499108655" stroke="#1f6feb" opacity="0.6"/>
<line x1="289.2491194364394" x2="289.2491194364394" y1="269.7101922031195" y2="261.0253493770981" stroke="#1f6feb" opacity="0.6"/>
<line x1="299.68235670829336" x2="299.68235670829336" y1="268.7177342481224" y2="259.3617019379843" stroke="#1f6feb" opacity="0.6"/>
<line x1="310.121037463977" x2="310.121037463977" y1="268.982004761067" y2="260.8334666301105" stroke="#1f6feb" opacity="0.6"/>
<line x1="320.56003842459177" x2="320.56003842459177" y1="266.6939233275012" y2="258.9880152519014" stroke="#1f6feb" opacity="0.6"/>
<line x1="330.9923150816523" x2="330.9923150816523" y1="266.8828515681855" y2="258.88254336778766" stroke="#1f6feb" opacity="0.6"/>
<line x1="341.4316362471983" x2="341.4316362471983" y1="264.9115135847128" y2="256.2829701495536" stroke="#1f6feb" opacity="0.6"/>
<line x1="351.86871597822613" x2="351.86871597822613" y1="266.3638912319904" y2="258.87672548537785" stroke="#1f6feb" opacity="0.6"/>
<line x1="362.30707652897854" x2="362.30707652897854" y1="267.504594031171" y2="260.4238082262255" stroke="#1f6feb" opacity="0.6"/>
<line x1="372.74927953890494" x2="372.74927953890494" y1="266.8127901386142" y2="261.0165444935465" stroke="#1f6feb" opacity="0.6"/>
<line x1="383.1972462375921" x2="383.1972462375921" y1="269.1941931014151" y2="262.3853715280618" stroke="#1f6feb" opacity="0.6"/>
<line x1="393.63656740313803" x2="393.63656740313803" y1="266.10233960074345" y2="259.6944574243055" stroke="#1f6feb" opacity="0.6"/>
<line x1="404.0682036503362" x2="404.0682036503362" y1="265.854030422299" y2="258.8176964009491" stroke="#1f6feb" opacity="0.6"/>
<line x1="414.5107268651937" x2="414.5107268651937" y1="264.99204862377167" y2="260.76117009285787" stroke="#1f6feb" opacity="0.6"/>
<line x1="424.9497278258086" x2="424.9497278258086" y1="265.87830451694583" y2="260.4962062798304" stroke="#1f6feb" opacity="0.6"/>
<line x1="435.3858469420429" x2="435.3858469420429" y1="263.7656733913816" y2="258.46353657380274" stroke="#1f6feb" opacity="0.6"/>
<line x1="445.8181235991035" x2="445.8181235991035" y1="264.5466361716398" y2="259.0180814987804" stroke="#1f6feb" opacity="0.6"/>
<line x1="456.2667307076529" x2="456.2667307076529" y1="265.5844450296864" y2="259.8077565693613" stroke="#1f6feb" opacity="0.6"/>
<line x1="466.70605187319893" x2="466.70605187319893" y1="266.66045070004816" y2="259.430560425965" stroke="#1f6feb" opacity="0.6"/>
<line x1="477.14697406340053" x2="477.14697406340053" y1="265.2968850972927" y2="259.98336783332394" stroke="#1f6feb" opacity="0.6"/>
<line x1="487.58021133525466" x2="487.58021133525466" y1="264.2789034850713" y2="259.8172748906377" stroke="#1f6feb" opacity="0.6"/>
<line x1="498.0185718860072" x2="498.0185718860072" y1="265.1125629300458" y2="259.9759976352982" stroke="#1f6feb" opacity="0.6"/>
<line x1="508.4582132564842" x2="508.4582132564842" y1="266.50865726165546" y2="260.27809235607015" stroke="#1f6feb" opacity="0.6"/>
<line x1="518.8956131924431" x2="518.8956131924431" y1="266.73841199718595" y2="260.6851794629313" stroke="#1f6feb" opacity="0.6"/>
<line x1="529.3355747678514" x2="529.3355747678514" y1="265.9804943680655" y2="259.74635238637893" stroke="#1f6feb" opacity="0.6"/>
<line x1="539.7748959333976" x2="539.7748959333976" y1="265.203966561903" y2="259.0721259618613" stroke="#1f6feb" opacity="0.6"/>
<line x1="550.2138968940122" x2="550.2138968940122" y1="264.3125420733503" y2="260.98368093981287" stroke="#1f6feb" opacity="0.6"/>
<line x1="560.6436119116236" x2="560.6436119116236" y1="263.65045415878916" y2="260.0186634481472" stroke="#1f6feb" opacity="0.6"/>
<line x1="571.0858149215499" x2="571.0858149215499" y1="264.43878885981394" y2="260.9277477536796" stroke="#1f6feb" opacity="0.6"/>
<line x1="581.5276977265451" x2="581.5276977265451" y1="264.39443471952427" y2="259.6489436084811" stroke="#1f6feb" opacity="0.6"/>
<line x1="591.9638168427795" x2="591.9638168427795" y1="265.20157371267015" y2="259.3393654598857" stroke="#1f6feb" opacity="0.6"/>
<line x1="602.4031380083254" x2="602.4031380083254" y1="265.5784102718258" y2="260.04124712508167" stroke="#1f6feb" opacity="0.6"/>
<line x1="612.8373358949729" x2="612.8373358949729" y1="264.7094602642423" y2="260.3874985160103" stroke="#1f6feb" opacity="0.6"/>
<line x1="623.2760166506565" x2="623.2760166506565" y1="265.45107362677226" y2="260.3429462544582" stroke="#1f6feb" opacity="0.6"/>
<line x1="633.7159782260647" x2="633.7159782260647" y1="263.97665071313406" y2="259.77320938842803" stroke="#1f6feb" opacity="0.6"/>
<line x1="644.1479346781941" x2="644.1479346781941" y1="264.23349705784295" y2="260.62286131456926" stroke="#1f6feb" opacity="0.6"/>
<line x1="654.5882164585337" x2="654.5882164585337" y1="264.56349379443" y2="260.55967982069694" stroke="#1f6feb" opacity="0.6"/>
<line x1="665.0208133205251" x2="665.0208133205251" y1="263.47839614526265" y2="260.7567513828206" stroke="#1f6feb" opacity="0.6"/>
<line x1="675.457893051553" x2="675.457893051553" y1="264.51995910359415" y2="260.86272296220466" stroke="#1f6feb" opacity="0.6"/>
<line x1="685.8914505283382" x2="685.8914505283382" y1="264.2277773120437" y2="260.14301665565733" stroke="#1f6feb" opacity="0.6"/>
<line x1="696.328210054435" x2="696.328210054435" y1="264.46967598802354" y2="260.1505027948746" stroke="#1f6feb" opacity="0.6"/>
<line x1="699.8946525776497" x2="699.8946525776497" y1="264.1195041670636" y2="260.4237867773415" stroke="#1f6feb" opacity="0.6"/>
<polyline points="70.0,272.3 699.9,272.3" fill="none" stroke="#d1242f" stroke-width="1.8" stroke-dasharray="6 4"/>
<rect x="470" y="46" width="14" height="3" fill="#1f6feb"/>
<text x="490" y="51">seed mean ± 95 % CI</text>
<rect x="470" y="64" width="14" height="3" fill="#d1242f"/>
<text x="490" y="69">Henderson EOS 1.1084 (diagnostic)</text>
</svg>