<svg xmlns="http://www.w3.org/2000/svg" width="740" height="440" font-family="sans-serif" font-size="12">
<rect width="740" height="440" fill="#fff"/>
<text x="370" y="22" text-anchor="middle" font-size="14" font-weight="600">E6 statistic z = (x − late mean) / late SD per window (clipped at ±6)</text>
<line x1="70" x2="720" y1="385" y2="385" stroke="#e5e5e5"/>
<text x="64" y="389" text-anchor="end">-6.00</text>
<text x="70" y="403" text-anchor="middle">0.101</text>
<line x1="70" x2="720" y1="316" y2="316" stroke="#e5e5e5"/>
<text x="64" y="320" text-anchor="end">-3.60</text>
<text x="200" y="403" text-anchor="middle">16.1</text>
<line x1="70" x2="720" y1="247" y2="247" stroke="#e5e5e5"/>
<text x="64" y="251" text-anchor="end">-1.20</text>
<text x="330" y="403" text-anchor="middle">32.1</text>
<line x1="70" x2="720" y1="178" y2="178" stroke="#e5e5e5"/>
<text x="64" y="182" text-anchor="end">1.20</text>
<text x="460" y="403" text-anchor="middle">48.0</text>
<line x1="70" x2="720" y1="109" y2="109" stroke="#e5e5e5"/>
<text x="64" y="113" text-anchor="end">3.60</text>
<text x="590" y="403" text-anchor="middle">64.0</text>
<line x1="70" x2="720" y1="40" y2="40" stroke="#e5e5e5"/>
<text x="64" y="44" text-anchor="end">6.00</text>
<text x="720" y="403" text-anchor="middle">80.0</text>
<line x1="70" x2="70" y1="40" y2="385" stroke="#333"/>
<line x1="70" x2="720" y1="385" y2="385" stroke="#333"/>
<text x="370" y="428" text-anchor="middle">collisions per particle (late half starts at 40.1)</text>
<text transform="translate(16 220) rotate(-90)" text-anchor="middle">z</text>
<polyline points="70.0,385.0 70.8,385.0 71.7,385.0 72.5,385.0 73.3,385.0 74.1,385.0 75.0,385.0 75.8,385.0 76.6,385.0 77.4,385.0 78.3,385.0 79.1,385.0 79.9,385.0 80.7,385.0 81.6,385.0 82.4,385.0 83.2,385.0 84.0,385.0 84.9,385.0 85.7,385.0 86.5,385.0 87.4,383.7 88.2,367.0 89.0,361.2 89.8,359.5 90.6,345.9 91.5,342.1 92.3,342.5 93.1,332.4 93.9,312.8 94.7,308.9 95.6,303.1 96.4,304.5 97.2,298.8 98.1,301.1 98.9,287.7 99.7,292.0 100.5,288.2 101.3,285.5 102.2,298.7 103.0,285.0 103.8,283.0 104.6,273.5 105.5,269.1 106.3,263.6 107.1,261.9 107.9,249.6 108.8,257.1 109.6,251.3 110.4,244.3 111.2,245.8 112.1,255.2 112.9,255.2 113.7,268.0 114.6,256.8 115.4,253.4 116.2,241.4 117.0,234.8 117.9,228.9 118.7,229.3 119.5,229.3 120.3,219.3 121.1,220.0 122.0,215.6 122.8,216.9 123.6,212.8 124.4,219.2 125.2,220.9 126.1,216.1 126.9,220.8 127.7,227.8 128.5,230.9 129.4,224.4 130.2,218.2 131.0,211.9 131.8,219.7 132.7,223.9 133.5,220.4 134.3,220.9 135.1,217.9 136.0,210.7 136.8,215.1 137.6,225.2 138.5,239.1 139.3,245.1 140.1,255.6 141.0,262.5 141.8,259.6 142.6,271.8 143.4,267.4 144.3,265.8 145.1,262.4 145.9,265.7 146.7,261.1 147.6,258.0 148.4,247.1 149.2,243.6 150.0,246.6 150.9,231.7 151.7,218.2 152.5,227.6 153.4,223.3 154.2,211.4 155.0,203.6 155.8,201.8 156.7,208.6 157.5,206.5 158.3,207.9 159.1,204.9 160.0,214.1 160.8,217.8 161.6,218.7 162.4,217.9 163.2,204.8 164.1,211.7 164.9,220.0 165.7,199.4 166.6,216.7 167.4,212.9 168.2,216.5 169.0,221.6 169.9,230.4 170.7,219.1 171.5,209.8 172.4,205.1 173.2,201.1 174.0,205.7 174.8,211.3 175.6,225.9 176.5,233.7 177.3,221.4 178.1,217.4 179.0,222.1 179.8,211.7 180.6,209.0 181.4,217.3 182.2,223.8 183.1,228.5 183.9,235.6 184.7,229.5 185.6,225.1 186.4,229.7 187.2,226.0 188.0,217.5 188.8,217.9 189.7,213.5 190.5,218.4 191.3,222.7 192.1,216.4 193.0,208.6 193.8,197.5 194.6,209.1 195.4,215.4 196.3,221.7 197.1,212.2 197.9,211.7 198.7,240.7 199.6,251.4 200.4,238.9 201.2,237.9 202.1,246.6 202.9,244.3 203.7,236.3 204.5,236.0 205.4,252.4 206.2,252.3 207.0,244.2 207.9,264.4 208.7,256.0 209.5,253.6 210.3,239.7 211.2,243.1 212.0,241.8 212.8,240.7 213.7,242.0 214.5,238.8 215.3,232.3 216.1,233.3 216.9,244.5 217.8,246.3 218.6,245.9 219.4,245.9 220.2,241.3 221.1,236.3 221.9,241.2 222.7,240.5 223.5,240.0 224.3,234.4 225.2,229.8 226.0,228.1 226.8,208.2 227.6,206.4 228.4,213.7 229.3,214.7 230.1,215.1 230.9,204.2 231.7,215.9 232.5,225.6 233.4,240.0 234.2,242.5 235.0,238.6 235.8,246.1 236.7,244.9 237.5,241.0 238.3,238.1 239.2,233.6 240.0,239.9 240.8,231.9 241.6,239.8 242.5,241.0 243.3,241.1 244.1,229.6 244.9,218.6 245.8,226.9 246.6,240.6 247.4,236.2 248.2,231.8 249.0,220.8 249.9,234.8 250.7,222.4 251.5,212.7 252.3,224.7 253.1,233.0 254.0,225.7 254.8,229.1 255.6,235.4 256.4,237.7 257.3,254.2 258.1,258.8 258.9,258.5 259.7,257.4 260.5,263.9 261.4,258.5 262.2,261.4 263.0,255.2 263.8,268.1 264.6,262.4 265.4,262.1 266.3,263.8 267.1,261.3 267.9,244.4 268.7,233.0 269.6,240.6 270.4,252.0 271.2,247.7 272.0,226.6 272.9,212.2 273.7,221.9 274.5,226.4 275.3,235.1 276.2,234.3 277.0,225.7 277.8,239.3 278.7,243.5 279.5,241.0 280.3,239.0 281.1,220.2 281.9,224.4 282.8,211.1 283.6,218.3 284.4,212.7 285.2,208.2 286.1,207.1 286.9,232.5 287.7,216.6 288.6,216.0 289.4,231.8 290.2,239.2 291.0,256.1 291.9,257.4 292.7,267.9 293.5,269.8 294.3,273.3 295.2,263.9 296.0,263.2 296.8,276.1 297.6,269.6 298.5,267.5 299.3,282.2 300.1,288.2 301.0,290.8 301.8,283.8 302.6,276.9 303.4,262.0 304.3,258.3 305.1,275.6 305.9,271.8 306.7,274.1 307.5,264.7 308.4,263.1 309.2,267.9 310.0,268.5 310.9,261.8 311.7,267.7 312.5,255.0 313.3,262.3 314.2,271.4 315.0,267.2 315.8,257.9 316.7,252.3 317.5,263.4 318.3,260.8 319.1,265.3 319.9,264.8 320.8,260.8 321.6,276.4 322.4,267.9 323.2,273.2 324.1,282.1 324.9,271.4 325.7,272.8 326.5,268.9 327.4,270.1 328.2,260.2 329.0,257.7 329.8,248.6 330.7,253.9 331.5,249.0 332.3,248.4 333.1,252.3 333.9,246.3 334.8,259.8 335.6,266.8 336.4,268.3 337.2,261.1 338.1,253.4 338.9,262.0 339.7,258.9 340.5,255.2 341.3,259.7 342.2,262.5 343.0,253.2 343.8,233.1 344.6,238.6 345.5,233.1 346.3,220.3 347.1,221.8 347.9,228.4 348.7,222.2 349.6,215.2 350.4,225.8 351.2,225.0 352.0,223.8 352.9,225.5 353.7,225.0 354.5,219.8 355.3,222.3 356.2,223.1 357.0,226.7 357.8,208.7 358.6,225.4 359.4,211.9 360.3,212.2 361.1,202.0 361.9,189.1 362.7,203.8 363.6,187.4 364.4,182.6 365.2,179.0 366.0,177.2 366.8,175.2 367.7,177.9 368.5,196.1 369.3,197.6 370.1,189.5 370.9,196.3 371.8,214.3 372.6,213.1 373.4,209.9 374.2,212.8 375.1,208.8 375.9,206.6 376.7,209.8 377.5,190.5 378.3,190.1 379.1,203.4 379.9,214.4 380.8,203.3 381.6,198.4 382.4,186.5 383.3,185.8 384.1,174.0 384.9,164.6 385.7,176.2 386.6,182.5 387.4,173.4 388.2,186.4 389.0,190.6 389.9,188.7 390.7,187.8 391.5,183.2 392.3,189.3 393.2,199.5 394.0,208.8 394.8,201.2 395.6,194.2 396.4,199.5 397.2,191.1 398.1,193.3 398.9,176.4 399.7,169.5 400.5,178.1 401.4,185.3 402.2,190.9 403.0,172.0 403.8,182.2 404.7,203.4 405.5,201.3 406.3,196.4 407.2,213.3 408.0,203.8 408.8,200.0 409.6,201.6 410.5,198.0 411.3,197.8 412.1,200.8 412.9,205.0 413.7,207.2 414.6,195.8 415.4,200.2 416.2,186.7 417.0,179.8 417.9,186.8 418.7,189.5 419.5,190.4 420.4,191.9 421.2,195.0 422.0,202.1 422.8,202.9 423.6,191.8 424.5,188.1 425.3,183.3 426.1,178.3 427.0,173.9 427.8,179.3 428.6,180.2 429.4,187.9 430.2,171.5 431.0,169.9 431.9,170.2 432.7,166.5 433.5,171.6 434.3,163.3 435.2,181.8 436.0,185.3 436.8,178.2 437.7,186.2 438.5,186.1 439.3,183.3 440.1,199.4 440.9,199.7 441.8,202.7 442.6,201.6 443.4,228.7 444.2,240.5 445.1,249.4 445.9,254.6 446.7,258.4 447.5,248.0 448.3,245.0 449.1,237.4 450.0,241.3 450.8,251.3 451.6,245.7 452.4,237.2 453.3,234.2 454.1,219.9 454.9,231.9 455.7,225.4 456.6,228.8 457.4,235.6 458.2,231.9 459.0,233.1 459.8,236.4 460.7,235.1 461.5,223.7 462.3,213.4 463.1,215.0 463.9,239.3 464.7,246.6 465.6,238.5 466.4,236.4 467.2,244.6 468.1,245.5 468.9,239.5 469.7,233.1 470.5,223.6 471.3,230.9 472.2,223.1 473.0,214.7 473.8,210.3 474.6,204.6 475.4,203.1 476.3,202.6 477.1,192.9 477.9,179.6 478.7,176.6 479.6,159.5 480.4,154.1 481.3,165.0 482.1,170.0 482.9,172.1 483.7,191.4 484.5,184.7 485.3,188.5 486.2,184.5 487.0,187.7 487.8,196.9 488.6,197.8 489.5,197.1 490.3,188.2 491.1,193.4 491.9,179.3 492.7,179.1 493.5,188.4 494.4,181.9 495.2,199.7 496.0,213.0 496.8,215.5 497.7,216.7 498.5,206.6 499.3,205.4 500.1,209.5 501.0,208.9 501.8,214.2 502.6,220.6 503.4,225.3 504.3,226.3 505.1,223.9 505.9,217.5 506.7,208.8 507.6,202.4 508.4,222.6 509.2,230.2 510.0,235.9 510.8,247.0 511.7,241.4 512.5,236.1 513.3,222.8 514.1,231.0 514.9,227.8 515.8,214.0 516.6,216.2 517.4,219.2 518.2,224.9 519.0,207.9 519.9,218.7 520.7,197.8 521.5,184.7 522.3,180.0 523.2,170.5 524.0,168.6 524.8,163.3 525.6,150.8 526.5,177.0 527.3,165.6 528.1,152.7 528.9,150.6 529.8,159.6 530.6,136.0 531.4,78.0 532.2,112.5 533.0,105.9 533.8,113.4 534.7,116.2 535.5,168.3 536.3,164.0 537.1,167.1 537.9,167.1 538.8,198.9 539.6,198.1 540.4,211.3 541.2,221.8 542.1,227.0 542.9,219.6 543.7,224.6 544.5,231.6 545.4,231.8 546.2,239.5 547.0,239.1 547.8,241.7 548.6,255.8 549.5,254.4 550.3,254.1 551.1,258.3 551.9,251.8 552.8,243.6 553.6,259.0 554.4,256.1 555.2,240.3 556.0,244.2 556.9,244.4 557.7,236.9 558.5,234.7 559.3,218.0 560.2,202.2 561.0,188.6 561.8,190.4 562.6,187.8 563.4,201.2 564.2,204.0 565.1,180.1 565.9,174.6 566.7,185.6 567.5,201.0 568.3,197.2 569.2,222.6 570.0,235.5 570.8,227.7 571.6,233.2 572.5,231.9 573.3,233.4 574.1,240.7 574.9,251.8 575.7,243.1 576.6,238.8 577.4,246.9 578.2,244.4 579.1,249.5 579.9,242.3 580.7,241.9 581.5,247.5 582.3,231.3 583.2,222.2 584.0,217.3 584.8,218.6 585.6,224.3 586.4,231.9 587.2,224.4 588.1,212.8 588.9,198.6 589.7,216.0 590.6,224.0 591.4,221.6 592.2,191.2 593.0,207.2 593.9,202.7 594.7,213.7 595.5,214.9 596.3,214.0 597.2,217.0 598.0,236.1 598.8,227.9 599.7,229.9 600.5,230.8 601.3,230.9 602.1,242.4 603.0,240.5 603.8,253.4 604.6,243.6 605.4,234.3 606.3,221.0 607.1,219.5 607.9,209.4 608.7,216.2 609.5,214.8 610.4,226.0 611.2,228.7 612.0,240.4 612.8,237.9 613.7,234.5 614.5,212.1 615.3,203.5 616.1,219.5 617.0,218.8 617.8,213.3 618.6,219.2 619.4,219.6 620.3,202.8 621.1,207.0 621.9,222.1 622.7,209.9 623.6,199.5 624.4,214.2 625.2,211.4 626.0,212.1 626.9,211.8 627.7,222.7 628.5,223.0 629.4,235.9 630.2,239.3 631.0,235.1 631.8,236.6 632.7,228.2 633.5,228.7 634.3,223.7 635.2,224.2 636.0,220.2 636.8,207.6 637.6,191.7 638.5,173.9 639.3,157.0 640.1,174.8 640.9,159.8 641.8,153.1 642.6,153.4 643.4,185.4 644.3,186.0 645.1,198.9 645.9,215.8 646.7,213.2 647.5,206.0 648.4,208.4 649.2,201.1 650.0,211.3 650.8,221.2 651.7,224.3 652.5,229.7 653.3,222.1 654.1,231.2 654.9,230.8 655.8,229.7 656.6,234.3 657.4,227.1 658.2,220.3 659.1,216.4 659.9,205.3 660.7,217.4 661.6,223.3 662.4,235.9 663.2,226.6 664.1,230.7 664.9,233.2 665.7,253.2 666.5,240.1 667.3,234.9 668.2,231.6 669.0,244.1 669.8,243.7 670.7,233.4 671.5,235.9 672.3,237.9 673.1,231.5 674.0,230.7 674.8,237.7 675.6,238.5 676.4,219.2 677.3,224.8 678.1,215.9 678.9,199.0 679.7,200.8 680.6,204.7 681.4,192.5 682.2,183.1 683.1,182.2 683.9,191.0 684.7,188.2 685.6,178.7 686.4,187.3 687.2,193.6 688.0,188.6 688.8,192.0 689.7,187.2 690.5,194.5 691.3,197.6 692.2,199.3 693.0,221.5 693.8,227.2 694.7,242.4 695.5,248.4 696.3,259.2 697.1,260.1 698.0,261.6 698.8,254.3 699.6,246.9 700.5,256.5 701.3,254.8 702.1,259.3 702.9,252.0 703.8,254.6 704.6,255.2 705.4,261.8 706.2,259.4 707.0,257.3 707.9,244.1 708.7,239.9 709.5,239.5 710.3,246.5 711.2,243.2 712.0,226.8 712.8,230.8 713.6,228.2 714.5,228.7 715.3,233.4 716.1,219.4 716.9,218.3 717.8,223.4 718.6,225.0 719.4,254.6 720.0,246.9" fill="none" stroke="#d1242f" stroke-width="1.8"/>
<polyline points="70.0,163.9 70.8,175.8 71.6,178.4 72.5,168.8 73.3,179.0 74.1,179.2 74.9,183.1 75.8,183.2 76.6,192.4 77.4,167.3 78.2,174.4 79.1,173.2 79.9,189.9 80.7,163.1 81.6,156.5 82.4,169.5 83.2,150.1 84.0,161.8 84.9,164.1 85.7,145.1 86.5,144.0 87.3,144.4 88.1,148.6 89.0,178.9 89.8,178.9 90.6,174.1 91.4,185.2 92.2,196.4 93.1,203.4 93.9,205.5 94.7,211.4 95.5,225.4 96.3,223.5 97.2,232.0 98.0,226.9 98.8,227.4 99.6,218.3 100.4,219.3 101.3,216.1 102.1,224.0 102.9,214.5 103.8,223.8 104.6,231.8 105.4,231.8 106.2,228.5 107.1,227.3 107.9,209.1 108.7,206.0 109.5,191.9 110.4,195.0 111.2,194.4 112.0,209.2 112.9,204.9 113.7,192.1 114.5,191.0 115.4,196.8 116.2,189.0 117.0,204.6 117.8,191.3 118.6,176.8 119.5,181.8 120.3,195.7 121.1,189.4 122.0,184.1 122.8,195.8 123.6,172.4 124.5,163.0 125.3,169.8 126.1,160.1 126.9,210.5 127.8,202.1 128.6,191.8 129.4,189.6 130.2,203.1 131.1,194.8 131.9,211.8 132.7,208.8 133.5,219.0 134.4,222.5 135.2,223.4 136.0,221.2 136.9,239.5 137.7,247.2 138.5,266.8 139.3,260.8 140.1,244.6 141.0,249.4 141.8,234.5 142.6,243.6 143.4,251.5 144.3,235.6 145.1,239.3 145.9,236.1 146.7,200.0 147.6,200.9 148.4,205.7 149.2,212.6 150.0,209.2 150.9,205.6 151.7,198.7 152.5,184.2 153.3,174.5 154.1,169.5 155.0,169.0 155.8,176.9 156.6,166.3 157.4,165.1 158.3,172.7 159.1,176.3 159.9,192.1 160.8,177.1 161.6,186.1 162.4,195.3 163.2,214.3 164.1,213.5 164.9,204.6 165.7,198.0 166.6,193.4 167.4,189.0 168.2,183.5 169.0,188.3 169.9,178.6 170.7,184.3 171.5,201.4 172.3,208.4 173.2,213.1 174.0,213.8 174.8,217.1 175.6,216.9 176.5,206.2 177.3,196.4 178.2,193.3 179.0,204.0 179.8,221.6 180.7,219.1 181.5,227.0 182.3,229.4 183.1,225.9 183.9,227.5 184.8,212.6 185.6,221.9 186.4,219.8 187.2,207.3 188.1,207.9 188.9,199.3 189.7,193.6 190.5,186.8 191.4,190.8 192.2,175.9 193.0,162.8 193.9,150.0 194.7,151.3 195.5,173.1 196.3,173.9 197.2,180.4 198.0,172.4 198.9,164.4 199.7,172.4 200.5,162.9 201.3,154.2 202.2,166.6 203.0,182.4 203.8,179.1 204.6,185.0 205.5,186.3 206.3,170.6 207.1,175.0 207.9,173.9 208.7,162.1 209.6,157.2 210.4,164.5 211.2,167.6 212.1,182.0 212.9,167.3 213.7,162.4 214.5,157.4 215.4,148.6 216.2,132.8 217.0,144.7 217.9,136.4 218.7,136.2 219.5,141.3 220.3,162.8 221.1,156.5 222.0,129.7 222.8,125.2 223.6,126.4 224.4,135.5 225.3,132.4 226.1,110.9 226.9,125.1 227.8,117.6 228.6,100.7 229.4,132.9 230.2,130.0 231.0,119.2 231.8,142.4 232.7,123.9 233.5,101.5 234.3,110.6 235.2,110.4 236.0,90.0 236.8,95.2 237.7,70.3 238.5,63.7 239.3,65.1 240.1,72.9 240.9,68.8 241.8,103.2 242.6,111.0 243.4,109.5 244.2,111.8 245.1,116.9 245.9,121.2 246.7,123.8 247.5,136.4 248.3,139.5 249.2,130.9 250.0,143.3 250.8,175.8 251.6,172.6 252.4,167.4 253.3,170.7 254.1,181.7 254.9,199.4 255.8,175.0 256.6,199.2 257.4,187.2 258.2,178.5 259.0,202.9 259.9,189.4 260.7,200.4 261.5,210.5 262.3,222.2 263.1,219.5 264.0,237.0 264.8,214.6 265.6,201.8 266.5,199.8 267.3,191.7 268.1,168.9 268.9,150.6 269.7,133.2 270.5,119.1 271.4,131.8 272.2,132.2 273.0,131.6 273.8,127.0 274.6,132.7 275.5,153.8 276.3,161.9 277.1,161.1 277.9,159.8 278.8,168.1 279.6,162.9 280.4,169.4 281.2,159.9 282.0,169.1 282.8,184.1 283.7,172.4 284.5,159.8 285.3,176.9 286.1,168.8 287.0,143.3 287.8,146.9 288.6,148.5 289.4,170.1 290.3,170.5 291.1,178.6 291.9,178.9 292.7,179.2 293.5,168.2 294.3,152.5 295.2,164.0 296.0,174.9 296.8,165.6 297.6,161.8 298.5,154.0 299.3,159.2 300.1,160.5 300.9,174.9 301.8,182.1 302.6,171.9 303.4,157.8 304.2,172.6 305.1,147.9 305.9,178.4 306.7,184.4 307.5,173.5 308.3,173.2 309.2,176.1 310.0,179.0 310.8,194.1 311.6,203.3 312.5,206.8 313.3,185.9 314.1,204.1 314.9,209.6 315.7,209.4 316.6,213.5 317.4,214.0 318.2,224.5 319.0,227.0 319.8,227.6 320.7,229.6 321.5,239.4 322.3,233.4 323.1,233.6 324.0,257.9 324.8,259.2 325.6,258.6 326.4,243.6 327.2,241.3 328.1,237.3 328.9,238.9 329.7,248.0 330.5,224.6 331.4,229.4 332.2,243.8 333.0,247.1 333.8,223.2 334.7,227.3 335.5,227.1 336.3,231.1 337.1,235.1 337.9,247.1 338.8,244.5 339.6,239.5 340.4,235.3 341.2,230.5 342.0,229.6 342.9,236.3 343.7,236.3 344.5,233.1 345.3,231.3 346.2,233.6 347.0,228.4 347.8,222.4 348.6,217.2 349.5,225.5 350.3,206.6 351.1,173.9 351.9,191.0 352.8,196.4 353.6,193.8 354.4,203.2 355.2,202.9 356.0,202.7 356.9,217.7 357.7,221.7 358.5,240.3 359.3,231.2 360.2,244.6 361.0,236.2 361.8,249.8 362.6,247.3 363.4,237.2 364.2,225.2 365.1,224.7 365.9,217.4 366.7,212.8 367.5,204.9 368.4,199.9 369.2,190.7 370.0,190.2 370.8,207.9 371.6,200.5 372.4,198.8 373.3,206.8 374.1,226.3 374.9,228.4 375.7,236.4 376.5,244.5 377.4,248.4 378.2,242.1 379.0,237.6 379.8,228.7 380.7,231.7 381.5,237.4 382.3,231.4 383.1,243.0 383.9,247.3 384.7,242.3 385.6,255.3 386.4,268.1 387.2,262.1 388.0,269.9 388.9,265.3 389.7,267.7 390.5,251.2 391.3,253.1 392.2,251.6 393.0,256.6 393.8,246.7 394.6,239.8 395.5,240.4 396.3,243.9 397.1,241.7 397.9,254.3 398.8,246.1 399.6,247.3 400.4,254.6 401.2,248.0 402.1,249.2 402.9,244.0 403.7,225.9 404.5,217.3 405.4,215.6 406.2,221.8 407.0,214.9 407.8,217.8 408.6,226.7 409.4,236.6 410.3,223.7 411.1,225.7 411.9,236.3 412.7,239.3 413.5,227.7 414.4,225.1 415.2,219.2 416.0,214.3 416.8,224.4 417.6,220.9 418.4,218.7 419.3,185.1 420.1,188.4 420.9,187.6 421.8,190.8 422.6,193.4 423.4,196.8 424.2,188.4 425.1,196.8 425.9,199.0 426.7,214.6 427.5,226.3 428.3,223.9 429.1,211.0 430.0,218.8 430.8,235.2 431.6,222.8 432.4,219.5 433.3,222.3 434.1,234.7 434.9,230.5 435.7,213.2 436.6,203.6 437.4,202.1 438.2,196.4 439.0,191.9 439.8,198.4 440.7,185.9 441.5,184.4 442.3,180.6 443.1,182.2 443.9,181.3 444.8,181.8 445.6,168.1 446.4,168.3 447.2,154.3 448.0,162.3 448.9,182.5 449.7,189.6 450.5,204.5 451.3,207.6 452.2,207.9 453.0,224.2 453.8,232.7 454.7,232.0 455.5,220.5 456.3,224.1 457.1,230.7 458.0,230.9 458.8,231.8 459.6,240.7 460.4,235.7 461.2,237.5 462.1,227.8 462.9,228.8 463.7,238.1 464.5,239.4 465.3,247.7 466.1,246.1 467.0,247.3 467.8,250.5 468.6,236.8 469.4,225.5 470.2,231.0 471.1,232.3 471.9,224.5 472.7,229.4 473.5,222.7 474.4,220.0 475.2,237.1 476.0,243.5 476.8,239.4 477.6,245.1 478.5,247.1 479.3,252.9 480.1,250.3 480.9,242.6 481.7,245.7 482.5,234.4 483.4,242.1 484.2,253.0 485.0,249.9 485.8,270.1 486.6,261.3 487.5,267.3 488.3,257.4 489.1,257.4 490.0,267.5 490.8,254.6 491.6,261.5 492.4,250.5 493.2,247.2 494.1,258.2 494.9,255.8 495.7,256.1 496.5,259.6 497.3,246.1 498.2,244.9 499.0,248.6 499.8,251.7 500.6,259.0 501.4,267.6 502.3,262.4 503.1,254.8 503.9,259.8 504.7,262.3 505.5,257.9 506.4,260.7 507.2,260.4 508.0,229.8 508.8,235.1 509.6,232.3 510.5,222.1 511.3,214.5 512.1,210.0 512.9,224.3 513.7,231.4 514.6,219.9 515.4,210.6 516.2,215.8 517.0,236.6 517.8,236.1 518.6,253.1 519.5,251.7 520.3,233.9 521.1,240.2 521.9,256.2 522.7,241.9 523.6,235.2 524.4,231.9 525.2,212.1 526.0,208.3 526.9,229.1 527.7,236.2 528.5,230.3 529.3,230.1 530.2,245.3 531.0,244.2 531.8,237.9 532.6,234.7 533.4,242.5 534.2,251.8 535.1,241.3 535.9,239.5 536.7,241.7 537.5,228.6 538.3,225.3 539.2,224.0 540.0,233.6 540.8,214.7 541.6,211.1 542.5,224.3 543.3,227.2 544.1,208.2 544.9,205.9 545.8,216.7 546.6,213.7 547.4,204.4 548.2,209.4 549.0,209.7 549.9,219.0 550.7,205.5 551.5,209.2 552.3,209.3 553.1,195.5 553.9,184.5 554.8,180.4 555.6,193.7 556.4,211.2 557.2,233.0 558.0,233.9 558.9,228.4 559.7,239.8 560.5,249.2 561.3,236.4 562.1,233.0 563.0,232.4 563.8,223.5 564.6,212.4 565.4,203.2 566.2,224.2 567.1,233.0 567.9,238.8 568.7,206.9 569.5,213.1 570.3,206.0 571.2,202.6 572.0,193.2 572.8,189.8 573.6,193.6 574.4,197.0 575.2,211.9 576.1,226.4 576.9,215.3 577.7,216.0 578.5,210.1 579.3,193.9 580.2,185.8 581.0,176.8 581.8,160.9 582.6,169.4 583.4,173.4 584.3,175.2 585.1,153.9 585.9,171.1 586.7,166.6 587.6,204.9 588.4,208.6 589.2,202.4 590.0,201.5 590.9,192.9 591.7,185.8 592.5,191.0 593.3,181.3 594.2,180.5 595.0,182.9 595.8,184.7 596.6,197.0 597.5,195.1 598.3,183.2 599.1,187.2 599.9,178.9 600.7,175.7 601.6,162.6 602.4,153.9 603.3,148.9 604.1,148.8 604.9,174.4 605.7,182.1 606.5,174.6 607.4,161.4 608.2,167.2 609.0,189.0 609.8,179.7 610.7,170.7 611.5,161.2 612.3,152.6 613.2,164.0 614.0,169.4 614.8,165.2 615.7,175.8 616.5,186.5 617.3,193.7 618.1,200.8 619.0,219.7 619.8,202.5 620.6,212.4 621.4,212.2 622.2,243.3 623.1,241.2 623.9,238.1 624.7,247.8 625.6,259.0 626.4,250.5 627.2,234.9 628.0,233.7 628.9,242.0 629.7,241.8 630.5,252.0 631.3,243.6 632.1,215.1 633.0,211.9 633.8,204.1 634.6,208.4 635.5,188.9 636.3,192.4 637.1,190.8 637.9,171.0 638.8,184.4 639.6,172.5 640.4,171.7 641.2,179.1 642.0,171.3 642.9,183.9 643.7,174.2 644.5,168.0 645.4,169.0 646.2,162.9 647.0,162.3 647.8,171.7 648.7,177.5 649.5,191.2 650.3,189.6 651.1,201.7 652.0,200.8 652.8,200.3 653.6,171.1 654.4,157.4 655.3,159.5 656.1,159.8 656.9,175.2 657.7,183.9 658.6,197.5 659.4,176.6 660.2,175.7 661.0,180.3 661.9,194.6 662.7,206.2 663.5,208.1 664.3,184.9 665.1,167.3 666.0,173.7 666.8,183.6 667.6,185.2 668.5,196.4 669.3,196.8 670.1,201.1 670.9,207.0 671.7,196.9 672.6,191.6 673.4,192.1 674.2,202.4 675.1,211.7 675.9,187.1 676.7,200.8 677.6,204.2 678.4,218.6 679.2,198.6 680.0,196.5 680.9,166.2 681.7,169.4 682.5,174.3 683.3,167.8 684.2,177.3 685.0,172.2 685.8,157.6 686.6,161.2 687.5,168.9 688.3,181.4 689.1,197.8 689.9,191.0 690.7,192.2 691.6,190.4 692.4,189.9 693.2,187.3 694.0,193.6 694.8,190.1 695.7,181.5 696.5,193.0 697.4,210.0 698.2,218.7 699.0,223.4 699.8,247.4 700.7,252.5 701.5,251.7 702.4,241.8 703.2,239.6 704.0,239.2 704.8,224.0 705.6,230.1 706.5,230.9 707.3,230.7 708.1,222.2 708.9,230.8 709.8,234.9 710.6,230.5 711.4,229.9 712.2,229.7 713.1,248.1 713.9,234.9 714.7,223.1 715.5,217.4 716.3,207.3 717.2,212.7 718.0,191.6 718.8,174.2 719.7,190.4" fill="none" stroke="#1f6feb" stroke-width="1.8"/>
<polyline points="70.0,97.5 719.9,97.5" fill="none" stroke="#57606a" stroke-width="1.8" stroke-dasharray="6 4"/>
<polyline points="70.0,327.5 719.9,327.5" fill="none" stroke="#57606a" stroke-width="0.8" opacity="0.45" stroke-dasharray="6 4"/>
<polyline points="395.3,385.0 395.3,40.0" fill="none" stroke="#57606a" stroke-width="0.8" opacity="0.45"/>
<rect x="490" y="46" width="14" height="3" fill="#d1242f"/>
<text x="510" y="51">uniform-box s25 a2 (flagged)</text>
<rect x="490" y="64" width="14" height="3" fill="#1f6feb"/>
<text x="510" y="69">maxwell s28 a2 (control)</text>
<rect x="490" y="82" width="14" height="3" fill="#57606a"/>
<text x="510" y="87">±4σ (E6 limit)</text>
</svg>