<svg xmlns="http://www.w3.org/2000/svg" width="720" height="440" font-family="sans-serif" font-size="12">
<rect width="720" height="440" fill="#fff"/>
<text x="360" y="22" text-anchor="middle" font-size="14" font-weight="600">Validation: running mean of Z — two-beam start, φ = 0.05</text>
<line x1="70" x2="700" y1="385" y2="385" stroke="#e5e5e5"/>
<text x="64" y="389" text-anchor="end">0.962</text>
<text x="70" y="403" text-anchor="middle">0.506</text>
<line x1="70" x2="700" y1="316.00000000000006" y2="316.00000000000006" stroke="#e5e5e5"/>
<text x="64" y="320.00000000000006" text-anchor="end">1.08</text>
<text x="196" y="403" text-anchor="middle">8.41</text>
<line x1="70" x2="700" y1="246.99999999999997" y2="246.99999999999997" stroke="#e5e5e5"/>
<text x="64" y="250.99999999999997" text-anchor="end">1.19</text>
<text x="322" y="403" text-anchor="middle">16.3</text>
<line x1="70" x2="700" y1="178.00000000000006" y2="178.00000000000006" stroke="#e5e5e5"/>
<text x="64" y="182.00000000000006" text-anchor="end">1.30</text>
<text x="448" y="403" text-anchor="middle">24.2</text>
<line x1="70" x2="700" y1="109.00000000000011" y2="109.00000000000011" stroke="#e5e5e5"/>
<text x="64" y="113.00000000000011" text-anchor="end">1.42</text>
<text x="574" y="403" text-anchor="middle">32.1</text>
<line x1="70" x2="700" y1="40" y2="40" stroke="#e5e5e5"/>
<text x="64" y="44" text-anchor="end">1.53</text>
<text x="700" y="403" text-anchor="middle">40.0</text>
<line x1="70" x2="70" y1="40" y2="385" stroke="#333"/>
<line x1="70" x2="700" y1="385" y2="385" stroke="#333"/>
<text x="360" y="428" text-anchor="middle">collisions per particle in the equilibrium window</text>
<text transform="translate(16 220) rotate(-90)" text-anchor="middle">cumulative mean Z</text>
<polyline points="70.9,311.9 80.6,290.4 90.3,315.0 99.9,308.2 109.6,322.1 119.2,304.8 128.9,292.1 138.5,296.4 148.2,280.0 157.8,289.8 167.5,295.0 177.2,295.1 186.8,304.3 196.5,311.2 206.1,302.3 215.8,302.0 225.5,293.7 235.2,296.0 244.9,299.8 254.6,296.5 264.2,302.6 273.8,301.5 283.4,302.2 293.1,302.9 302.8,300.7 312.4,297.1 322.1,299.9 331.7,305.6 341.4,306.1 351.0,312.0 360.7,310.9 370.4,304.9 380.1,305.3 389.7,305.1 399.4,302.6 409.1,296.1 418.7,288.8 428.3,291.2 437.9,294.1 447.6,295.7 457.3,296.4 466.9,293.3 476.7,292.5 486.4,292.1 496.2,292.8 505.9,290.0 515.7,286.5 525.3,287.2 535.0,291.9 544.7,291.9 554.4,294.8 564.2,293.7 573.9,295.9 583.6,297.5 593.3,298.4 603.0,298.3 612.7,298.5 622.4,299.3 632.0,298.2 641.7,294.7 651.4,296.9 661.2,293.6 670.9,292.6 680.7,292.0 690.4,292.1 700.0,292.2" fill="none" stroke="#8c959f" stroke-width="0.8" opacity="0.45"/>
<polyline points="70.8,280.7 80.5,285.5 90.2,307.2 99.9,305.8 109.5,258.8 119.2,265.4 128.8,265.9 138.5,262.3 148.1,277.0 157.7,265.0 167.4,255.2 177.1,256.9 186.8,257.8 196.4,265.0 206.1,278.9 215.8,276.6 225.4,283.4 235.1,278.2 244.7,273.1 254.3,274.1 264.0,278.9 273.6,285.4 283.2,281.5 292.9,282.2 302.6,278.8 312.3,283.2 321.9,288.5 331.6,292.1 341.3,287.7 351.0,290.4 360.6,292.6 370.2,291.7 379.9,289.8 389.5,290.7 399.2,284.8 408.8,284.5 418.4,284.0 428.1,287.8 437.7,287.1 447.5,285.7 457.2,287.7 467.0,287.6 476.6,289.7 486.4,289.0 496.1,288.7 505.7,288.4 515.4,288.8 525.1,289.0 534.9,289.2 544.5,291.6 554.3,290.5 564.0,287.9 573.7,290.1 583.4,286.0 593.2,290.2 602.9,288.2 612.6,290.1 622.4,287.4 632.1,285.6 641.9,282.8 651.6,285.2 661.2,285.6 671.0,287.3 680.7,287.3 690.3,287.1 700.0,287.4" fill="none" stroke="#8c959f" stroke-width="0.8" opacity="0.45"/>
<polyline points="70.4,334.5 80.0,377.6 89.6,364.5 99.3,364.5 108.9,326.3 118.6,320.3 128.3,312.4 138.0,322.2 147.6,316.5 157.3,317.5 166.9,293.4 176.6,287.1 186.2,279.4 195.9,266.3 205.8,266.6 215.4,262.8 225.0,271.9 234.8,280.5 244.4,286.2 254.1,284.8 263.7,293.1 273.3,292.4 283.0,288.8 292.6,294.1 302.3,293.2 311.9,300.3 321.6,294.3 331.2,289.1 340.8,286.5 350.5,291.0 360.1,287.6 369.8,287.8 379.4,288.2 389.1,289.2 398.7,292.4 408.4,293.3 418.0,291.6 427.7,290.1 437.4,289.7 447.0,287.1 456.7,288.6 466.4,286.0 476.1,286.3 485.9,286.2 495.6,288.5 505.3,289.2 515.0,288.3 524.7,286.1 534.5,288.2 544.2,284.8 553.8,288.6 563.6,288.8 573.3,291.0 583.0,288.6 592.7,287.5 602.3,286.8 612.0,287.8 621.8,287.3 631.5,289.7 641.3,289.3 650.9,291.2 660.6,291.9 670.3,292.7 679.9,291.4 689.7,290.5 699.4,291.1" fill="none" stroke="#8c959f" stroke-width="0.8" opacity="0.45"/>
<polyline points="71.5,344.6 81.2,349.8 90.9,326.1 100.5,337.7 110.2,297.4 119.9,282.5 129.6,297.0 139.2,269.4 148.9,289.3 158.6,291.9 168.2,285.7 177.9,277.5 187.5,277.9 197.2,284.9 206.9,276.7 216.5,286.5 226.1,292.8 235.8,292.3 245.4,287.1 255.1,288.8 264.7,295.8 274.4,298.2 284.0,296.5 293.7,295.7 303.4,303.6 313.0,298.5 322.7,294.6 332.4,289.2 342.0,295.0 351.7,292.0 361.4,297.8 371.0,295.8 380.6,294.4 390.2,294.2 399.9,297.9 409.5,295.6 419.2,294.5 428.9,297.0 438.5,298.4 448.2,294.6 457.9,295.2 467.6,301.1 477.4,292.3 487.0,291.7 496.7,288.7 506.5,289.2 516.2,289.8 525.9,289.0 535.6,287.1 545.3,284.0 555.0,282.1 564.8,282.8 574.4,286.8 584.2,284.5 593.9,285.6 603.6,286.8 613.3,288.5 623.0,290.3 632.7,291.1 642.4,289.0 652.0,291.0 661.8,294.0 671.6,295.0 681.3,291.3 691.1,291.1 699.2,292.4" fill="none" stroke="#8c959f" stroke-width="0.8" opacity="0.45"/>
<polyline points="70.9,368.4 80.5,300.4 90.2,244.8 99.8,255.6 109.5,236.8 119.2,220.8 128.8,234.1 138.5,214.7 148.2,229.4 157.8,241.4 167.5,242.7 177.3,249.2 187.0,239.6 196.7,246.6 206.3,249.1 216.1,242.2 225.7,246.7 235.4,246.2 245.1,253.1 254.8,252.8 264.4,260.0 274.0,260.6 283.7,262.9 293.3,262.0 303.0,264.0 312.7,267.3 322.3,265.1 332.0,267.1 341.7,269.7 351.3,274.8 361.0,277.4 370.8,271.1 380.4,273.2 390.0,275.7 399.7,278.3 409.5,281.7 419.2,283.8 428.8,286.6 438.5,286.9 448.2,291.7 457.9,292.1 467.6,289.5 477.3,290.4 487.1,288.1 496.8,286.3 506.5,286.5 516.3,284.1 526.0,284.0 535.7,282.6 545.4,282.8 555.1,283.4 564.8,281.0 574.6,278.1 584.3,277.4 594.0,278.5 603.7,278.6 613.4,277.1 623.0,276.2 632.8,275.5 642.5,273.9 652.2,274.1 661.9,276.9 671.5,277.6 681.2,279.2 690.9,281.1 700.0,278.2" fill="none" stroke="#8c959f" stroke-width="0.8" opacity="0.45"/>
<polyline points="70.2,43.0 79.9,176.6 89.5,228.3 99.2,282.9 108.8,283.6 118.5,302.1 128.1,283.0 137.7,289.5 147.3,306.7 157.0,310.6 166.6,302.4 176.2,289.1 185.9,294.8 195.5,291.1 205.2,289.3 214.9,285.8 224.5,283.8 234.1,290.3 243.8,287.0 253.4,276.3 263.1,277.6 272.7,276.7 282.5,287.2 292.2,281.6 301.9,280.5 311.7,272.9 321.4,277.2 331.0,278.8 340.7,277.8 350.4,279.5 360.1,278.2 369.8,279.7 379.5,284.1 389.2,286.6 398.9,288.5 408.6,285.8 418.2,286.1 427.9,283.4 437.6,282.3 447.2,284.3 456.9,285.4 466.6,289.3 476.3,287.0 486.0,287.1 495.7,286.1 505.3,285.9 515.1,286.3 524.8,291.1 534.5,288.9 544.2,290.8 554.0,290.4 563.7,291.2 573.4,294.4 583.2,287.7 592.9,282.6 602.7,282.0 612.4,283.2 622.0,284.0 631.8,284.6 641.5,288.0 651.1,289.6 660.8,289.7 670.5,289.8 680.2,290.8 689.9,288.8 699.6,289.1" fill="none" stroke="#8c959f" stroke-width="0.8" opacity="0.45"/>
<polyline points="70.5,312.3 80.1,269.4 89.8,310.9 99.4,302.4 109.1,321.9 118.8,313.7 128.5,303.0 138.2,300.5 147.9,292.3 157.5,308.7 167.2,306.2 176.9,302.5 186.6,309.0 196.2,309.7 205.9,305.8 215.6,312.2 225.2,313.0 234.9,309.3 244.5,313.1 254.2,311.3 263.8,312.4 273.4,323.0 283.1,319.4 292.8,311.0 302.5,301.3 312.2,303.1 321.9,299.8 331.7,307.9 341.4,307.4 351.1,311.2 360.8,312.9 370.4,306.7 380.1,300.3 389.8,300.9 399.4,298.7 409.0,296.4 418.7,298.7 428.4,297.7 438.0,300.8 447.7,290.1 457.4,286.3 467.2,289.8 476.9,286.8 486.7,287.9 496.4,290.5 506.1,288.7 515.8,292.7 525.6,292.5 535.3,293.0 545.0,290.6 554.7,292.7 564.4,290.7 574.1,293.6 583.8,291.5 593.6,295.0 603.3,295.1 613.0,296.0 622.7,296.9 632.3,295.4 642.0,296.4 651.8,298.9 661.5,297.8 671.2,298.8 680.9,298.9 690.7,298.4 700.0,297.6" fill="none" stroke="#8c959f" stroke-width="0.8" opacity="0.45"/>
<polyline points="70.0,167.6 79.7,191.7 89.3,258.3 99.0,248.5 108.6,263.2 118.3,273.8 127.9,299.3 137.5,302.4 147.1,284.5 156.8,290.9 166.5,303.6 176.1,305.0 185.8,296.6 195.5,302.5 205.2,297.3 214.8,307.2 224.5,294.7 234.1,287.7 243.8,285.1 253.5,281.1 263.2,285.8 272.9,281.5 282.6,280.6 292.3,278.6 301.9,282.5 311.6,277.8 321.2,271.9 330.9,272.0 340.5,276.8 350.1,274.7 359.9,274.4 369.6,277.6 379.3,275.6 388.9,277.7 398.7,279.2 408.3,275.5 418.0,273.1 427.6,273.3 437.3,274.6 447.0,278.3 456.7,279.8 466.4,283.8 476.1,289.9 485.8,289.7 495.5,289.7 505.2,288.5 514.9,292.5 524.7,289.3 534.3,289.3 544.1,287.4 553.8,287.9 563.5,287.4 573.2,288.8 582.9,285.0 592.6,285.2 602.3,287.6 612.0,286.7 621.7,288.9 631.5,290.2 641.2,290.6 650.9,291.8 660.7,292.3 670.4,291.2 680.1,289.9 689.8,290.1 699.5,289.5" fill="none" stroke="#8c959f" stroke-width="0.8" opacity="0.45"/>
<polyline points="70.1,236.1 79.8,147.3 89.4,198.0 99.1,219.0 108.7,270.1 118.4,258.5 128.0,276.8 137.7,275.5 147.4,262.5 157.0,281.7 166.7,274.1 176.4,282.0 186.0,278.6 195.7,279.0 205.4,285.2 215.0,290.0 224.6,285.5 234.3,286.8 243.9,284.6 253.6,286.7 263.2,287.4 272.9,287.0 282.6,284.6 292.2,285.1 301.9,291.0 311.5,287.1 321.2,285.6 330.8,277.3 340.5,278.0 350.2,277.7 359.8,281.6 369.5,280.6 379.2,281.8 388.9,282.1 398.5,284.0 408.2,280.4 417.8,278.8 427.5,281.3 437.2,280.9 446.9,278.5 456.6,278.7 466.4,277.3 476.1,280.4 485.8,279.0 495.5,278.4 505.3,279.5 515.0,282.6 524.7,283.9 534.3,288.6 544.1,288.1 553.8,288.7 563.5,290.1 573.2,290.6 582.9,288.5 592.5,288.2 602.3,285.5 612.0,288.5 621.7,286.4 631.4,287.2 641.1,290.2 650.8,291.6 660.5,290.9 670.2,292.8 680.0,291.7 689.7,288.6 699.5,287.4" fill="none" stroke="#8c959f" stroke-width="0.8" opacity="0.45"/>
<polyline points="70.5,375.4 80.2,331.5 89.9,337.9 99.5,382.0 109.2,376.5 118.8,328.7 128.5,322.7 138.1,324.8 147.8,329.6 157.5,339.4 167.1,325.8 176.8,311.8 186.5,304.0 196.2,311.2 206.0,317.3 215.6,315.1 225.2,311.8 234.9,319.7 244.6,310.7 254.2,317.2 263.8,318.1 273.5,316.3 283.1,310.7 292.8,315.1 302.4,303.1 312.0,297.3 321.7,297.8 331.3,297.8 341.0,298.8 350.6,296.0 360.3,288.5 370.0,287.1 379.6,285.7 389.3,286.0 399.0,283.4 408.7,284.7 418.3,284.6 427.9,283.9 437.6,285.9 447.3,287.8 457.0,289.1 466.8,293.8 476.5,293.1 486.2,291.2 495.9,289.9 505.7,287.8 515.4,288.6 525.1,288.9 534.8,290.8 544.5,293.5 554.2,295.8 563.9,294.4 573.7,299.4 583.4,298.8 593.2,298.8 602.9,300.0 612.6,301.3 622.3,304.0 632.0,304.2 641.7,304.9 651.5,302.4 661.2,299.9 670.9,299.1 680.6,299.2 690.3,298.5 700.0,298.0" fill="none" stroke="#8c959f" stroke-width="0.8" opacity="0.45"/>
<polyline points="70.6,277.5 80.3,272.0 89.9,289.1 99.6,300.7 109.2,295.7 118.9,287.1 128.5,288.6 138.2,285.8 147.9,286.8 157.5,293.7 167.2,288.4 176.8,285.6 186.5,284.2 196.2,286.8 205.9,286.8 215.6,288.0 225.2,287.7 234.8,288.7 244.5,288.0 254.2,287.0 263.8,291.2 273.5,292.3 283.1,291.4 292.8,290.8 302.5,289.9 312.1,288.5 321.8,287.5 331.5,287.7 341.1,288.4 350.8,289.9 360.5,290.2 370.1,288.3 379.8,287.8 389.5,288.8 399.1,289.0 408.8,287.4 418.5,286.4 428.1,287.2 437.8,288.1 447.4,287.4 457.2,287.9 466.9,289.1 476.6,288.8 486.3,288.2 496.0,288.0 505.7,287.4 515.5,288.0 525.2,288.1 534.9,289.0 544.6,288.5 554.3,289.5 564.0,288.8 573.7,290.9 583.5,288.5 593.2,289.0 602.9,288.9 612.6,289.8 622.3,290.1 632.0,290.2 641.7,290.0 651.4,291.3 661.1,291.3 670.8,291.7 680.6,291.2 690.3,290.6 699.7,290.3" fill="none" stroke="#1f6feb" stroke-width="1.8"/>
<line x1="70.58540105327123" x2="70.58540105327123" y1="351.62282686281884" y2="203.287689667753" stroke="#1f6feb" opacity="0.6"/>
<line x1="80.2516963743164" x2="80.2516963743164" y1="326.9900893846226" y2="217.02752396159306" stroke="#1f6feb" opacity="0.6"/>
<line x1="89.91639659712376" x2="89.91639659712376" y1="327.387217418829" y2="250.77567659576397" stroke="#1f6feb" opacity="0.6"/>
<line x1="99.5635507393154" x2="99.5635507393154" y1="337.5051705579715" y2="263.80523148087855" stroke="#1f6feb" opacity="0.6"/>
<line x1="109.22506076564716" x2="109.22506076564716" y1="325.4025085075252" y2="265.9377777723268" stroke="#1f6feb" opacity="0.6"/>
<line x1="118.88019039902775" x2="118.88019039902775" y1="310.8505358465377" y2="263.2765045822176" stroke="#1f6feb" opacity="0.6"/>
<line x1="128.54170042535955" x2="128.54170042535955" y1="306.77822742408017" y2="270.4901239006521" stroke="#1f6feb" opacity="0.6"/>
<line x1="138.19523496050238" x2="138.19523496050238" y1="308.9447193003999" y2="262.62004771239856" stroke="#1f6feb" opacity="0.6"/>
<line x1="147.85036459388294" x2="147.85036459388294" y1="307.0039839337072" y2="266.5812288453767" stroke="#1f6feb" opacity="0.6"/>
<line x1="157.5070893255013" x2="157.5070893255013" y1="313.5017187549041" y2="273.88999256174475" stroke="#1f6feb" opacity="0.6"/>
<line x1="167.1638140571197" x2="167.1638140571197" y1="306.2661163962512" y2="270.52817411156536" stroke="#1f6feb" opacity="0.6"/>
<line x1="176.83648977111608" x2="176.83648977111608" y1="300.080835914369" y2="271.14722591939335" stroke="#1f6feb" opacity="0.6"/>
<line x1="186.51076058335025" x2="186.51076058335025" y1="300.1246435945282" y2="268.2817223625565" stroke="#1f6feb" opacity="0.6"/>
<line x1="196.1898166902978" x2="196.1898166902978" y1="302.8490650584557" y2="270.6562245660054" stroke="#1f6feb" opacity="0.6"/>
<line x1="205.88322868138545" x2="205.88322868138545" y1="301.24771143741305" y2="272.4445933326006" stroke="#1f6feb" opacity="0.6"/>
<line x1="215.55590439538182" x2="215.55590439538182" y1="304.4846213341078" y2="271.5870820743507" stroke="#1f6feb" opacity="0.6"/>
<line x1="225.19348794814667" x2="225.19348794814667" y1="301.4163604847614" y2="274.0318366199318" stroke="#1f6feb" opacity="0.6"/>
<line x1="234.84861758152726" x2="234.84861758152726" y1="302.7105008533603" y2="274.70454052534114" stroke="#1f6feb" opacity="0.6"/>
<line x1="244.5117227060968" x2="244.5117227060968" y1="300.5003617661099" y2="275.486773514608" stroke="#1f6feb" opacity="0.6"/>
<line x1="254.16206704476403" x2="254.16206704476403" y1="300.2266817480208" y2="273.7156036926469" stroke="#1f6feb" opacity="0.6"/>
<line x1="263.8028407940045" x2="263.8028407940045" y1="303.53185196929616" y2="278.82736968045896" stroke="#1f6feb" opacity="0.6"/>
<line x1="273.4595655256229" x2="273.4595655256229" y1="305.49228051370926" y2="279.02367074948614" stroke="#1f6feb" opacity="0.6"/>
<line x1="283.1210755519546" x2="283.1210755519546" y1="303.1077455760899" y2="279.7791989067562" stroke="#1f6feb" opacity="0.6"/>
<line x1="292.7905610694754" x2="292.7905610694754" y1="302.38070187235746" y2="279.28619522250716" stroke="#1f6feb" opacity="0.6"/>
<line x1="302.4759975693741" x2="302.4759975693741" y1="299.27580171640125" y2="280.4452514241896" stroke="#1f6feb" opacity="0.6"/>
<line x1="312.13272230099255" x2="312.13272230099255" y1="297.52518168738004" y2="279.41367013494255" stroke="#1f6feb" opacity="0.6"/>
<line x1="321.7926372290866" x2="321.7926372290866" y1="296.2767002471373" y2="278.68079853474205" stroke="#1f6feb" opacity="0.6"/>
<line x1="331.4716933360341" x2="331.4716933360341" y1="297.57018959246005" y2="277.84589093583764" stroke="#1f6feb" opacity="0.6"/>
<line x1="341.1316082641281" x2="341.1316082641281" y1="297.7297183938683" y2="279.0481658476281" stroke="#1f6feb" opacity="0.6"/>
<line x1="350.7851427992709" x2="350.7851427992709" y1="299.7448771662164" y2="280.08562353480716" stroke="#1f6feb" opacity="0.6"/>
<line x1="360.4546283167917" x2="360.4546283167917" y1="299.8938029956899" y2="280.5163660526947" stroke="#1f6feb" opacity="0.6"/>
<line x1="370.1368746202147" x2="370.1368746202147" y1="296.6565821947764" y2="279.93073777635277" stroke="#1f6feb" opacity="0.6"/>
<line x1="379.80955033421117" x2="379.80955033421117" y1="295.1024965549807" y2="280.57574402663556" stroke="#1f6feb" opacity="0.6"/>
<line x1="389.4630848693539" x2="389.4630848693539" y1="295.55358956956434" y2="282.0772412336719" stroke="#1f6feb" opacity="0.6"/>
<line x1="399.13257038687465" x2="399.13257038687465" y1="295.07627657090313" y2="282.8977913182209" stroke="#1f6feb" opacity="0.6"/>
<line x1="408.8068411991088" x2="408.8068411991088" y1="292.71407743626986" y2="282.0705047242115" stroke="#1f6feb" opacity="0.6"/>
<line x1="418.4603757342516" x2="418.4603757342516" y1="291.72097999957407" y2="281.08627086206747" stroke="#1f6feb" opacity="0.6"/>
<line x1="428.12188576058344" x2="428.12188576058344" y1="292.4894330405006" y2="281.99637135531174" stroke="#1f6feb" opacity="0.6"/>
<line x1="437.76584970629943" x2="437.76584970629943" y1="293.82758012835916" y2="282.3174536153695" stroke="#1f6feb" opacity="0.6"/>
<line x1="447.4449058132469" x2="447.4449058132469" y1="291.63766138751953" y2="283.1040297920469" stroke="#1f6feb" opacity="0.6"/>
<line x1="457.1734099655661" x2="457.1734099655661" y1="292.0918926852935" y2="283.78892688222095" stroke="#1f6feb" opacity="0.6"/>
<line x1="466.8923435284586" x2="466.8923435284586" y1="293.68990085419927" y2="284.5875793322375" stroke="#1f6feb" opacity="0.6"/>
<line x1="476.6048966983999" x2="476.6048966983999" y1="291.58857849000634" y2="286.1013087937582" stroke="#1f6feb" opacity="0.6"/>
<line x1="486.32223516305453" x2="486.32223516305453" y1="290.90584225376347" y2="285.4962246317556" stroke="#1f6feb" opacity="0.6"/>
<line x1="496.03319323475796" x2="496.03319323475796" y1="290.7321940437465" y2="285.18833811496535" stroke="#1f6feb" opacity="0.6"/>
<line x1="505.7441513064615" x2="505.7441513064615" y1="289.5478818681019" y2="285.1966501133462" stroke="#1f6feb" opacity="0.6"/>
<line x1="515.4870113429208" x2="515.4870113429208" y1="290.3641075594462" y2="285.68493081086336" stroke="#1f6feb" opacity="0.6"/>
<line x1="525.1740429410575" x2="525.1740429410575" y1="290.1113313859823" y2="286.0805994643348" stroke="#1f6feb" opacity="0.6"/>
<line x1="534.8929765039497" x2="534.8929765039497" y1="291.00079480605825" y2="286.91661252557327" stroke="#1f6feb" opacity="0.6"/>
<line x1="544.6039345756533" x2="544.6039345756533" y1="291.18663814712266" y2="285.8945069905421" stroke="#1f6feb" opacity="0.6"/>
<line x1="554.3164877455946" x2="554.3164877455946" y1="292.6651269890409" y2="286.3192172492355" stroke="#1f6feb" opacity="0.6"/>
<line x1="564.0418017014381" x2="564.0418017014381" y1="291.87065613505615" y2="285.7117102972817" stroke="#1f6feb" opacity="0.6"/>
<line x1="573.7463793801904" x2="573.7463793801904" y1="295.0320173168026" y2="286.70882169627714" stroke="#1f6feb" opacity="0.6"/>
<line x1="583.4685031395585" x2="583.4685031395585" y1="293.04207186648136" y2="284.02971017609696" stroke="#1f6feb" opacity="0.6"/>
<line x1="593.1794612112619" x2="593.1794612112619" y1="293.79746233762273" y2="284.21557831111556" stroke="#1f6feb" opacity="0.6"/>
<line x1="602.8920143812032" x2="602.8920143812032" y1="293.81501239772285" y2="283.96772080854305" stroke="#1f6feb" opacity="0.6"/>
<line x1="612.5822361758152" x2="612.5822361758152" y1="294.9309448528154" y2="284.6021237157525" stroke="#1f6feb" opacity="0.6"/>
<line x1="622.2836236580921" x2="622.2836236580921" y1="295.8274831309123" y2="284.29589895803446" stroke="#1f6feb" opacity="0.6"/>
<line x1="632.0041523192222" x2="632.0041523192222" y1="295.83632505329706" y2="284.5051237165219" stroke="#1f6feb" opacity="0.6"/>
<line x1="641.719895685639" x2="641.719895685639" y1="295.83357797227967" y2="284.1192305186041" stroke="#1f6feb" opacity="0.6"/>
<line x1="651.41809297144" x2="651.41809297144" y1="296.86708537456786" y2="285.67084404846435" stroke="#1f6feb" opacity="0.6"/>
<line x1="661.1450020255218" x2="661.1450020255218" y1="295.8849685960289" y2="286.6716077144896" stroke="#1f6feb" opacity="0.6"/>
<line x1="670.8479846060362" x2="670.8479846060362" y1="296.0825202526056" y2="287.26089795816364" stroke="#1f6feb" opacity="0.6"/>
<line x1="680.5621328742153" x2="680.5621328742153" y1="295.1901689428143" y2="287.12355398990127" stroke="#1f6feb" opacity="0.6"/>
<line x1="690.2746860441564" x2="690.2746860441564" y1="294.26925272043457" y2="286.96625990896746" stroke="#1f6feb" opacity="0.6"/>
<line x1="699.6985264330566" x2="699.6985264330566" y1="294.33895382731697" y2="286.251300730706" stroke="#1f6feb" opacity="0.6"/>
<rect x="470" y="46" width="14" height="3" fill="#1f6feb"/>
<text x="490" y="51">seed mean ± 95 % CI</text>
</svg>