<svg xmlns="http://www.w3.org/2000/svg" width="720" height="440" font-family="sans-serif" font-size="12">
<rect width="720" height="440" fill="#fff"/>
<text x="360" y="22" text-anchor="middle" font-size="14" font-weight="600">length variant A1-r2.5-len vs A1-r2.5: near-wall velocity</text>
<line x1="70" x2="700" y1="385" y2="385" stroke="#e5e5e5"/>
<text x="64" y="389" text-anchor="end">-0.0207</text>
<text x="70" y="403" text-anchor="middle">10.0</text>
<line x1="70" x2="700" y1="316" y2="316" stroke="#e5e5e5"/>
<text x="64" y="320" text-anchor="end">0.237</text>
<text x="196" y="403" text-anchor="middle">138</text>
<line x1="70" x2="700" y1="247" y2="247" stroke="#e5e5e5"/>
<text x="64" y="251" text-anchor="end">0.494</text>
<text x="322" y="403" text-anchor="middle">266</text>
<line x1="70" x2="700" y1="177.99999999999997" y2="177.99999999999997" stroke="#e5e5e5"/>
<text x="64" y="181.99999999999997" text-anchor="end">0.752</text>
<text x="448" y="403" text-anchor="middle">394</text>
<line x1="70" x2="700" y1="109" y2="109" stroke="#e5e5e5"/>
<text x="64" y="113" text-anchor="end">1.01</text>
<text x="574" y="403" text-anchor="middle">522</text>
<line x1="70" x2="700" y1="40" y2="40" stroke="#e5e5e5"/>
<text x="64" y="44" text-anchor="end">1.27</text>
<text x="700" y="403" text-anchor="middle">650</text>
<line x1="70" x2="70" y1="40" y2="385" stroke="#333"/>
<line x1="70" x2="700" y1="385" y2="385" stroke="#333"/>
<text x="360" y="428" text-anchor="middle">x</text>
<text transform="translate(16 220) rotate(-90)" text-anchor="middle">u_wall</text>
<polyline points="70.0,44.6 89.7,84.9 109.4,128.3 129.1,143.4 148.8,169.4 168.4,279.6 188.1,320.4 207.8,327.5 227.5,334.3 247.2,343.6 266.9,353.0 286.6,362.2 306.3,369.8 325.9,376.8 345.6,378.1 365.3,382.9 385.0,380.2 404.7,379.0 424.4,384.3 444.1,382.6 463.8,381.9 483.4,381.0 503.1,379.2 522.8,371.2 542.5,359.0 562.2,301.1 581.9,223.3 601.6,129.8" fill="none" stroke="#1f6feb" stroke-width="1.8"/>
<line x1="70" x2="70" y1="46.243263807340384" y2="42.973360679654775" stroke="#1f6feb" opacity="0.6"/>
<line x1="89.6875" x2="89.6875" y1="86.47833419114568" y2="83.38245463672678" stroke="#1f6feb" opacity="0.6"/>
<line x1="109.375" x2="109.375" y1="128.99591588205766" y2="127.521379974262" stroke="#1f6feb" opacity="0.6"/>
<line x1="129.0625" x2="129.0625" y1="145.20132261534246" y2="141.63761673765524" stroke="#1f6feb" opacity="0.6"/>
<line x1="148.75" x2="148.75" y1="171.63514100220283" y2="167.18547871661863" stroke="#1f6feb" opacity="0.6"/>
<line x1="168.4375" x2="168.4375" y1="282.3893150458691" y2="276.75382702931853" stroke="#1f6feb" opacity="0.6"/>
<line x1="188.125" x2="188.125" y1="322.29266176524067" y2="318.4890433113242" stroke="#1f6feb" opacity="0.6"/>
<line x1="207.8125" x2="207.8125" y1="328.82025426871235" y2="326.22263843873236" stroke="#1f6feb" opacity="0.6"/>
<line x1="227.5" x2="227.5" y1="335.9348801790508" y2="332.71445984606584" stroke="#1f6feb" opacity="0.6"/>
<line x1="247.1875" x2="247.1875" y1="345.5159715942407" y2="341.761047249179" stroke="#1f6feb" opacity="0.6"/>
<line x1="266.875" x2="266.875" y1="354.3612478761847" y2="351.5501094268881" stroke="#1f6feb" opacity="0.6"/>
<line x1="286.5625" x2="286.5625" y1="364.9333045984863" y2="359.47884047671573" stroke="#1f6feb" opacity="0.6"/>
<line x1="306.25" x2="306.25" y1="372.15845866770263" y2="367.4636723753976" stroke="#1f6feb" opacity="0.6"/>
<line x1="325.9375" x2="325.9375" y1="379.1706445330313" y2="374.4335715432491" stroke="#1f6feb" opacity="0.6"/>
<line x1="345.625" x2="345.625" y1="379.7378652640322" y2="376.41736865128445" stroke="#1f6feb" opacity="0.6"/>
<line x1="365.3125" x2="365.3125" y1="384.7744825733562" y2="380.9998939507845" stroke="#1f6feb" opacity="0.6"/>
<line x1="385" x2="385" y1="381.6665715716363" y2="378.7025700505379" stroke="#1f6feb" opacity="0.6"/>
<line x1="404.6875" x2="404.6875" y1="380.49574722330516" y2="377.5524026922834" stroke="#1f6feb" opacity="0.6"/>
<line x1="424.375" x2="424.375" y1="385.675688632236" y2="382.9481251977922" stroke="#1f6feb" opacity="0.6"/>
<line x1="444.0625" x2="444.0625" y1="384.2562539695334" y2="380.9181139535744" stroke="#1f6feb" opacity="0.6"/>
<line x1="463.75" x2="463.75" y1="383.78073059724665" y2="380.0527321068921" stroke="#1f6feb" opacity="0.6"/>
<line x1="483.4375" x2="483.4375" y1="383.27050626837143" y2="378.6408165450369" stroke="#1f6feb" opacity="0.6"/>
<line x1="503.125" x2="503.125" y1="381.19206959659317" y2="377.18153422252567" stroke="#1f6feb" opacity="0.6"/>
<line x1="522.8125" x2="522.8125" y1="372.6194392896823" y2="369.78174725822214" stroke="#1f6feb" opacity="0.6"/>
<line x1="542.5" x2="542.5" y1="359.7639338853068" y2="358.2476318503376" stroke="#1f6feb" opacity="0.6"/>
<line x1="562.1875" x2="562.1875" y1="303.6579146284795" y2="298.60273953737976" stroke="#1f6feb" opacity="0.6"/>
<line x1="581.875" x2="581.875" y1="225.65861799862316" y2="220.86409189721218" stroke="#1f6feb" opacity="0.6"/>
<line x1="601.5625" x2="601.5625" y1="132.264218849691" y2="127.38919078822573" stroke="#1f6feb" opacity="0.6"/>
<polyline points="70.0,40.0 89.7,83.3 109.4,129.8 129.1,146.7 148.8,175.6 168.4,284.4 188.1,320.7 207.8,336.8 227.5,340.3 247.2,340.5 266.9,346.9 286.6,355.2 306.3,368.7 325.9,375.4 345.6,378.8 365.3,383.9 385.0,381.2 404.7,380.7 424.4,383.4 444.1,378.8 463.8,382.7 483.4,382.2 503.1,385.0 522.8,384.7 542.5,381.3 562.2,379.9 581.9,380.4 601.6,373.1 621.3,368.8 640.9,354.9 660.6,286.2 680.3,213.4 700.0,123.8" fill="none" stroke="#d1242f" stroke-width="1.8"/>
<line x1="70" x2="70" y1="41.86832170931507" y2="38.13167829068493" stroke="#d1242f" opacity="0.6"/>
<line x1="89.6875" x2="89.6875" y1="83.68645877029144" y2="82.98632034089951" stroke="#d1242f" opacity="0.6"/>
<line x1="109.375" x2="109.375" y1="130.73570943019777" y2="128.82965309407365" stroke="#d1242f" opacity="0.6"/>
<line x1="129.0625" x2="129.0625" y1="149.66088431446258" y2="143.72104873630707" stroke="#d1242f" opacity="0.6"/>
<line x1="148.75" x2="148.75" y1="177.56803638963018" y2="173.62605509340574" stroke="#d1242f" opacity="0.6"/>
<line x1="168.4375" x2="168.4375" y1="285.94418260284414" y2="282.8946690017483" stroke="#d1242f" opacity="0.6"/>
<line x1="188.125" x2="188.125" y1="323.5042629990713" y2="317.9519284802818" stroke="#d1242f" opacity="0.6"/>
<line x1="207.8125" x2="207.8125" y1="339.3931130440458" y2="334.2915561092007" stroke="#d1242f" opacity="0.6"/>
<line x1="227.5" x2="227.5" y1="343.7588198523019" y2="336.7958034947306" stroke="#d1242f" opacity="0.6"/>
<line x1="247.1875" x2="247.1875" y1="341.8104196464511" y2="339.19702744997414" stroke="#d1242f" opacity="0.6"/>
<line x1="266.875" x2="266.875" y1="349.26406028579885" y2="344.5173639459403" stroke="#d1242f" opacity="0.6"/>
<line x1="286.5625" x2="286.5625" y1="358.6273205947016" y2="351.70951124426983" stroke="#d1242f" opacity="0.6"/>
<line x1="306.25" x2="306.25" y1="369.72058079526903" y2="367.6895856579494" stroke="#d1242f" opacity="0.6"/>
<line x1="325.9375" x2="325.9375" y1="376.6624161134763" y2="374.06420653625156" stroke="#d1242f" opacity="0.6"/>
<line x1="345.625" x2="345.625" y1="381.98742929839386" y2="375.58109938507357" stroke="#d1242f" opacity="0.6"/>
<line x1="365.3125" x2="365.3125" y1="385.83397128616156" y2="382.0601078564608" stroke="#d1242f" opacity="0.6"/>
<line x1="385" x2="385" y1="382.7807348677376" y2="379.60711755939985" stroke="#d1242f" opacity="0.6"/>
<line x1="404.6875" x2="404.6875" y1="384.6988901458218" y2="376.6991137961954" stroke="#d1242f" opacity="0.6"/>
<line x1="424.375" x2="424.375" y1="386.54902266917145" y2="380.3193989167961" stroke="#d1242f" opacity="0.6"/>
<line x1="444.0625" x2="444.0625" y1="380.12630618271163" y2="377.4912596015449" stroke="#d1242f" opacity="0.6"/>
<line x1="463.75" x2="463.75" y1="385.84067659537453" y2="379.6547098379629" stroke="#d1242f" opacity="0.6"/>
<line x1="483.4375" x2="483.4375" y1="383.78667080226296" y2="380.58997622718135" stroke="#d1242f" opacity="0.6"/>
<line x1="503.125" x2="503.125" y1="389.10806192019777" y2="380.89193807980223" stroke="#d1242f" opacity="0.6"/>
<line x1="522.8125" x2="522.8125" y1="386.9006183977994" y2="382.5052455473436" stroke="#d1242f" opacity="0.6"/>
<line x1="542.5" x2="542.5" y1="382.7155140711484" y2="379.9677179572378" stroke="#d1242f" opacity="0.6"/>
<line x1="562.1875" x2="562.1875" y1="382.82690493655844" y2="376.8899044634364" stroke="#d1242f" opacity="0.6"/>
<line x1="581.875" x2="581.875" y1="382.7975173996244" y2="378.08351131256217" stroke="#d1242f" opacity="0.6"/>
<line x1="601.5625" x2="601.5625" y1="375.0012517486612" y2="371.2048659524368" stroke="#d1242f" opacity="0.6"/>
<line x1="621.25" x2="621.25" y1="369.3373529579062" y2="368.3289787548678" stroke="#d1242f" opacity="0.6"/>
<line x1="640.9375" x2="640.9375" y1="356.3988211736687" y2="353.3550395104663" stroke="#d1242f" opacity="0.6"/>
<line x1="660.625" x2="660.625" y1="288.1522655997018" y2="284.29198172397537" stroke="#d1242f" opacity="0.6"/>
<line x1="680.3125" x2="680.3125" y1="216.686862583573" y2="210.12740508149474" stroke="#d1242f" opacity="0.6"/>
<line x1="700" x2="700" y1="126.08450720980755" y2="121.52003623150603" stroke="#d1242f" opacity="0.6"/>
<rect x="470" y="46" width="14" height="3" fill="#1f6feb"/>
<text x="490" y="51">A1-r2.5</text>
<rect x="470" y="64" width="14" height="3" fill="#d1242f"/>
<text x="490" y="69">A1-r2.5-len</text>
</svg>