<svg xmlns="http://www.w3.org/2000/svg" width="720" height="440" font-family="sans-serif" font-size="12">
<rect width="720" height="440" fill="#fff"/>
<text x="360" y="22" text-anchor="middle" font-size="14" font-weight="600">height variant A1-r1-H vs A1-r1: near-wall velocity</text>
<line x1="70" x2="700" y1="385" y2="385" stroke="#e5e5e5"/>
<text x="64" y="389" text-anchor="end">0.105</text>
<text x="70" y="403" text-anchor="middle">10.0</text>
<line x1="70" x2="700" y1="316" y2="316" stroke="#e5e5e5"/>
<text x="64" y="320" text-anchor="end">0.308</text>
<text x="196" y="403" text-anchor="middle">118</text>
<line x1="70" x2="700" y1="246.99999999999997" y2="246.99999999999997" stroke="#e5e5e5"/>
<text x="64" y="250.99999999999997" text-anchor="end">0.512</text>
<text x="322" y="403" text-anchor="middle">226</text>
<line x1="70" x2="700" y1="178" y2="178" stroke="#e5e5e5"/>
<text x="64" y="182" text-anchor="end">0.716</text>
<text x="448" y="403" text-anchor="middle">334</text>
<line x1="70" x2="700" y1="109" y2="109" stroke="#e5e5e5"/>
<text x="64" y="113" text-anchor="end">0.919</text>
<text x="574" y="403" text-anchor="middle">442</text>
<line x1="70" x2="700" y1="40" y2="40" stroke="#e5e5e5"/>
<text x="64" y="44" text-anchor="end">1.12</text>
<text x="700" y="403" text-anchor="middle">550</text>
<line x1="70" x2="70" y1="40" y2="385" stroke="#333"/>
<line x1="70" x2="700" y1="385" y2="385" stroke="#333"/>
<text x="360" y="428" text-anchor="middle">x</text>
<text transform="translate(16 220) rotate(-90)" text-anchor="middle">u_wall</text>
<polyline points="70.0,40.0 93.3,69.7 116.7,115.9 140.0,131.7 163.3,163.5 186.7,299.4 210.0,352.3 233.3,363.3 256.7,369.0 280.0,367.6 303.3,370.5 326.7,369.5 350.0,368.6 373.3,367.8 396.7,369.0 420.0,371.1 443.3,368.7 466.7,365.0 490.0,364.4 513.3,363.9 536.7,359.2 560.0,357.3 583.3,351.9 606.7,351.6 630.0,336.1 653.3,258.7 676.7,201.7 700.0,138.5" fill="none" stroke="#1f6feb" stroke-width="1.8"/>
<line x1="70" x2="70" y1="42.150546415083966" y2="37.849453584916034" stroke="#1f6feb" opacity="0.6"/>
<line x1="93.33333333333333" x2="93.33333333333333" y1="71.07039009995935" y2="68.23944192221859" stroke="#1f6feb" opacity="0.6"/>
<line x1="116.66666666666666" x2="116.66666666666666" y1="117.35379054225547" y2="114.48126891009514" stroke="#1f6feb" opacity="0.6"/>
<line x1="140" x2="140" y1="133.68397203724504" y2="129.75671199030086" stroke="#1f6feb" opacity="0.6"/>
<line x1="163.33333333333331" x2="163.33333333333331" y1="166.54359250881734" y2="160.4366089438401" stroke="#1f6feb" opacity="0.6"/>
<line x1="186.66666666666666" x2="186.66666666666666" y1="301.7297900191943" y2="297.1295393806022" stroke="#1f6feb" opacity="0.6"/>
<line x1="210" x2="210" y1="353.3359649370122" y2="351.179093409496" stroke="#1f6feb" opacity="0.6"/>
<line x1="233.33333333333331" x2="233.33333333333331" y1="365.5212190613017" y2="361.08234278249836" stroke="#1f6feb" opacity="0.6"/>
<line x1="256.66666666666663" x2="256.66666666666663" y1="370.8068085041886" y2="367.10684757136164" stroke="#1f6feb" opacity="0.6"/>
<line x1="280" x2="280" y1="368.8390043414732" y2="366.37217965730343" stroke="#1f6feb" opacity="0.6"/>
<line x1="303.3333333333333" x2="303.3333333333333" y1="371.98727785586453" y2="368.97551803628846" stroke="#1f6feb" opacity="0.6"/>
<line x1="326.66666666666663" x2="326.66666666666663" y1="372.3181424213487" y2="366.646440153257" stroke="#1f6feb" opacity="0.6"/>
<line x1="350" x2="350" y1="370.5980504258051" y2="366.5342551115728" stroke="#1f6feb" opacity="0.6"/>
<line x1="373.3333333333333" x2="373.3333333333333" y1="369.5472216021118" y2="366.0760308441514" stroke="#1f6feb" opacity="0.6"/>
<line x1="396.66666666666663" x2="396.66666666666663" y1="371.4152567819175" y2="366.61467897219023" stroke="#1f6feb" opacity="0.6"/>
<line x1="420" x2="420" y1="373.304644901201" y2="368.8450206601091" stroke="#1f6feb" opacity="0.6"/>
<line x1="443.3333333333333" x2="443.3333333333333" y1="370.83659885193345" y2="366.5803715235504" stroke="#1f6feb" opacity="0.6"/>
<line x1="466.6666666666667" x2="466.6666666666667" y1="365.9375148810024" y2="363.9756412147768" stroke="#1f6feb" opacity="0.6"/>
<line x1="490" x2="490" y1="365.9134427459939" y2="362.8665780626003" stroke="#1f6feb" opacity="0.6"/>
<line x1="513.3333333333334" x2="513.3333333333334" y1="366.3413414447155" y2="361.4531639549623" stroke="#1f6feb" opacity="0.6"/>
<line x1="536.6666666666666" x2="536.6666666666666" y1="361.8055398027593" y2="356.5462363436371" stroke="#1f6feb" opacity="0.6"/>
<line x1="560" x2="560" y1="358.73837480868707" y2="355.9154628496797" stroke="#1f6feb" opacity="0.6"/>
<line x1="583.3333333333333" x2="583.3333333333333" y1="354.0838710920646" y2="349.6186940934453" stroke="#1f6feb" opacity="0.6"/>
<line x1="606.6666666666666" x2="606.6666666666666" y1="352.6585364898743" y2="350.61063067023423" stroke="#1f6feb" opacity="0.6"/>
<line x1="630" x2="630" y1="339.0416116747011" y2="333.1708215426222" stroke="#1f6feb" opacity="0.6"/>
<line x1="653.3333333333334" x2="653.3333333333334" y1="263.12717155452856" y2="254.19185146418323" stroke="#1f6feb" opacity="0.6"/>
<line x1="676.6666666666666" x2="676.6666666666666" y1="203.8437958813572" y2="199.626912721557" stroke="#1f6feb" opacity="0.6"/>
<line x1="700" x2="700" y1="140.7409127262844" y2="136.19856749464032" stroke="#1f6feb" opacity="0.6"/>
<polyline points="70.0,80.3 93.3,86.4 116.7,103.9 140.0,122.6 163.3,158.9 186.7,302.0 210.0,355.6 233.3,368.8 256.7,377.8 280.0,372.1 303.3,379.4 326.7,380.3 350.0,376.7 373.3,378.1 396.7,378.7 420.0,385.0 443.3,380.5 466.7,384.1 490.0,381.9 513.3,378.8 536.7,375.9 560.0,378.5 583.3,378.7 606.7,374.3 630.0,362.3 653.3,300.9 676.7,238.3 700.0,178.4" fill="none" stroke="#d1242f" stroke-width="1.8"/>
<line x1="70" x2="70" y1="82.52732748313804" y2="78.12379675214424" stroke="#d1242f" opacity="0.6"/>
<line x1="93.33333333333333" x2="93.33333333333333" y1="89.41940889882392" y2="83.44424978549569" stroke="#d1242f" opacity="0.6"/>
<line x1="116.66666666666666" x2="116.66666666666666" y1="105.1387490019934" y2="102.64163805748188" stroke="#d1242f" opacity="0.6"/>
<line x1="140" x2="140" y1="125.22942323379027" y2="119.93152995555909" stroke="#d1242f" opacity="0.6"/>
<line x1="163.33333333333331" x2="163.33333333333331" y1="164.10076530664196" y2="153.74876481072036" stroke="#d1242f" opacity="0.6"/>
<line x1="186.66666666666666" x2="186.66666666666666" y1="305.69629483342413" y2="298.2513192037303" stroke="#d1242f" opacity="0.6"/>
<line x1="210" x2="210" y1="356.7542712066949" y2="354.5440667486736" stroke="#d1242f" opacity="0.6"/>
<line x1="233.33333333333331" x2="233.33333333333331" y1="371.33460038204186" y2="366.2245340947841" stroke="#d1242f" opacity="0.6"/>
<line x1="256.66666666666663" x2="256.66666666666663" y1="380.3558261500858" y2="375.2420217930935" stroke="#d1242f" opacity="0.6"/>
<line x1="280" x2="280" y1="375.5841429494873" y2="368.5849170003352" stroke="#d1242f" opacity="0.6"/>
<line x1="303.3333333333333" x2="303.3333333333333" y1="380.5376736132137" y2="378.3208137387203" stroke="#d1242f" opacity="0.6"/>
<line x1="326.66666666666663" x2="326.66666666666663" y1="382.2816398366545" y2="378.2810334488504" stroke="#d1242f" opacity="0.6"/>
<line x1="350" x2="350" y1="377.7116612432494" y2="375.7588551008978" stroke="#d1242f" opacity="0.6"/>
<line x1="373.3333333333333" x2="373.3333333333333" y1="379.885279733086" y2="376.27146533146237" stroke="#d1242f" opacity="0.6"/>
<line x1="396.66666666666663" x2="396.66666666666663" y1="379.96169021339983" y2="377.5360614199295" stroke="#d1242f" opacity="0.6"/>
<line x1="420" x2="420" y1="386.39509554427605" y2="383.60490445572395" stroke="#d1242f" opacity="0.6"/>
<line x1="443.3333333333333" x2="443.3333333333333" y1="381.617332256013" y2="379.39952918492435" stroke="#d1242f" opacity="0.6"/>
<line x1="466.6666666666667" x2="466.6666666666667" y1="387.2385992826657" y2="380.928461467495" stroke="#d1242f" opacity="0.6"/>
<line x1="490" x2="490" y1="382.3763823013416" y2="381.3570826577828" stroke="#d1242f" opacity="0.6"/>
<line x1="513.3333333333334" x2="513.3333333333334" y1="381.77630917081615" y2="375.8191543827763" stroke="#d1242f" opacity="0.6"/>
<line x1="536.6666666666666" x2="536.6666666666666" y1="376.91792434553975" y2="374.95638105174464" stroke="#d1242f" opacity="0.6"/>
<line x1="560" x2="560" y1="380.8618600916528" y2="376.14168713768817" stroke="#d1242f" opacity="0.6"/>
<line x1="583.3333333333333" x2="583.3333333333333" y1="382.7550432110256" y2="374.7189559820814" stroke="#d1242f" opacity="0.6"/>
<line x1="606.6666666666666" x2="606.6666666666666" y1="376.28756679193106" y2="372.2868608367361" stroke="#d1242f" opacity="0.6"/>
<line x1="630" x2="630" y1="365.2955994265116" y2="359.25416406129193" stroke="#d1242f" opacity="0.6"/>
<line x1="653.3333333333334" x2="653.3333333333334" y1="302.8978680019714" y2="298.9332139655325" stroke="#d1242f" opacity="0.6"/>
<line x1="676.6666666666666" x2="676.6666666666666" y1="243.56411956946235" y2="233.12691134068197" stroke="#d1242f" opacity="0.6"/>
<line x1="700" x2="700" y1="183.7784315893853" y2="172.9775066473513" stroke="#d1242f" opacity="0.6"/>
<rect x="470" y="46" width="14" height="3" fill="#1f6feb"/>
<text x="490" y="51">A1-r1</text>
<rect x="470" y="64" width="14" height="3" fill="#d1242f"/>
<text x="490" y="69">A1-r1-H</text>
</svg>