<svg xmlns="http://www.w3.org/2000/svg" width="954" height="304" font-family="sans-serif" font-size="11">
<rect width="954" height="304" fill="#fff"/>
<text x="60" y="22" font-size="13" font-weight="600">A1-r2.5-dt: near-wall u (y &lt; 40); black boxes: u &lt; 0 at one-sided p ≤ 0.005; green: dividing streamline ψ = 0</text>
<rect x="60.0" y="248.8" width="28.3" height="11.5" fill="rgb(192,57,43)"/>
<rect x="88.0" y="248.8" width="28.3" height="11.5" fill="rgb(192,57,43)"/>
<rect x="116.0" y="248.8" width="28.3" height="11.5" fill="rgb(192,57,43)"/>
<rect x="144.0" y="248.8" width="28.3" height="11.5" fill="rgb(192,57,43)"/>
<rect x="172.0" y="248.8" width="28.3" height="11.5" fill="rgb(192,57,43)"/>
<rect x="200.0" y="248.8" width="28.3" height="11.5" fill="rgb(205,98,87)"/>
<rect x="228.0" y="248.8" width="28.3" height="11.5" fill="rgb(226,163,156)"/>
<rect x="256.0" y="248.8" width="28.3" height="11.5" fill="rgb(233,186,182)"/>
<rect x="284.0" y="248.8" width="28.3" height="11.5" fill="rgb(234,190,185)"/>
<rect x="312.0" y="248.8" width="28.3" height="11.5" fill="rgb(238,200,196)"/>
<rect x="340.0" y="248.8" width="28.3" height="11.5" fill="rgb(241,210,207)"/>
<rect x="368.0" y="248.8" width="28.3" height="11.5" fill="rgb(246,227,225)"/>
<rect x="396.0" y="248.8" width="28.3" height="11.5" fill="rgb(245,225,223)"/>
<rect x="424.0" y="248.8" width="28.3" height="11.5" fill="rgb(251,244,243)"/>
<rect x="452.0" y="248.8" width="28.3" height="11.5" fill="rgb(255,255,255)"/>
<rect x="480.0" y="248.8" width="28.3" height="11.5" fill="rgb(252,253,254)"/>
<rect x="508.0" y="248.8" width="28.3" height="11.5" fill="rgb(254,250,250)"/>
<rect x="536.0" y="248.8" width="28.3" height="11.5" fill="rgb(254,252,252)"/>
<rect x="564.0" y="248.8" width="28.3" height="11.5" fill="rgb(251,252,254)"/>
<rect x="592.0" y="248.8" width="28.3" height="11.5" fill="rgb(245,248,251)"/>
<rect x="620.0" y="248.8" width="28.3" height="11.5" fill="rgb(252,253,254)"/>
<rect x="648.0" y="248.8" width="28.3" height="11.5" fill="rgb(244,247,251)"/>
<rect x="676.0" y="248.8" width="28.3" height="11.5" fill="rgb(250,252,253)"/>
<rect x="704.0" y="248.8" width="28.3" height="11.5" fill="rgb(251,241,240)"/>
<rect x="732.0" y="248.8" width="28.3" height="11.5" fill="rgb(244,219,217)"/>
<rect x="760.0" y="248.8" width="28.3" height="11.5" fill="rgb(192,57,43)"/>
<rect x="788.0" y="248.8" width="28.3" height="11.5" fill="rgb(192,57,43)"/>
<rect x="816.0" y="248.8" width="28.3" height="11.5" fill="rgb(192,57,43)"/>
<rect x="60.0" y="237.6" width="28.3" height="11.5" fill="rgb(192,57,43)"/>
<rect x="88.0" y="237.6" width="28.3" height="11.5" fill="rgb(192,57,43)"/>
<rect x="116.0" y="237.6" width="28.3" height="11.5" fill="rgb(192,57,43)"/>
<rect x="144.0" y="237.6" width="28.3" height="11.5" fill="rgb(192,57,43)"/>
<rect x="172.0" y="237.6" width="28.3" height="11.5" fill="rgb(192,57,43)"/>
<rect x="200.0" y="237.6" width="28.3" height="11.5" fill="rgb(192,57,43)"/>
<rect x="228.0" y="237.6" width="28.3" height="11.5" fill="rgb(193,59,45)"/>
<rect x="256.0" y="237.6" width="28.3" height="11.5" fill="rgb(204,94,83)"/>
<rect x="284.0" y="237.6" width="28.3" height="11.5" fill="rgb(214,127,118)"/>
<rect x="312.0" y="237.6" width="28.3" height="11.5" fill="rgb(218,139,131)"/>
<rect x="340.0" y="237.6" width="28.3" height="11.5" fill="rgb(225,162,155)"/>
<rect x="368.0" y="237.6" width="28.3" height="11.5" fill="rgb(233,186,182)"/>
<rect x="396.0" y="237.6" width="28.3" height="11.5" fill="rgb(237,200,196)"/>
<rect x="424.0" y="237.6" width="28.3" height="11.5" fill="rgb(247,231,229)"/>
<rect x="452.0" y="237.6" width="28.3" height="11.5" fill="rgb(253,248,248)"/>
<rect x="480.0" y="237.6" width="28.3" height="11.5" fill="rgb(254,252,251)"/>
<rect x="508.0" y="237.6" width="28.3" height="11.5" fill="rgb(252,246,245)"/>
<rect x="536.0" y="237.6" width="28.3" height="11.5" fill="rgb(251,252,254)"/>
<rect x="564.0" y="237.6" width="28.3" height="11.5" fill="rgb(252,253,254)"/>
<rect x="592.0" y="237.6" width="28.3" height="11.5" fill="rgb(242,246,250)"/>
<rect x="620.0" y="237.6" width="28.3" height="11.5" fill="rgb(245,248,251)"/>
<rect x="648.0" y="237.6" width="28.3" height="11.5" fill="rgb(244,247,251)"/>
<rect x="676.0" y="237.6" width="28.3" height="11.5" fill="rgb(253,253,254)"/>
<rect x="704.0" y="237.6" width="28.3" height="11.5" fill="rgb(248,234,232)"/>
<rect x="732.0" y="237.6" width="28.3" height="11.5" fill="rgb(237,198,193)"/>
<rect x="760.0" y="237.6" width="28.3" height="11.5" fill="rgb(192,57,43)"/>
<rect x="788.0" y="237.6" width="28.3" height="11.5" fill="rgb(192,57,43)"/>
<rect x="816.0" y="237.6" width="28.3" height="11.5" fill="rgb(192,57,43)"/>
<rect x="60.0" y="226.4" width="28.3" height="11.5" fill="rgb(192,57,43)"/>
<rect x="88.0" y="226.4" width="28.3" height="11.5" fill="rgb(192,57,43)"/>
<rect x="116.0" y="226.4" width="28.3" height="11.5" fill="rgb(192,57,43)"/>
<rect x="144.0" y="226.4" width="28.3" height="11.5" fill="rgb(192,57,43)"/>
<rect x="172.0" y="226.4" width="28.3" height="11.5" fill="rgb(192,57,43)"/>
<rect x="200.0" y="226.4" width="28.3" height="11.5" fill="rgb(192,57,43)"/>
<rect x="228.0" y="226.4" width="28.3" height="11.5" fill="rgb(192,57,43)"/>
<rect x="256.0" y="226.4" width="28.3" height="11.5" fill="rgb(192,57,43)"/>
<rect x="284.0" y="226.4" width="28.3" height="11.5" fill="rgb(192,57,43)"/>
<rect x="312.0" y="226.4" width="28.3" height="11.5" fill="rgb(197,72,59)"/>
<rect x="340.0" y="226.4" width="28.3" height="11.5" fill="rgb(210,114,105)"/>
<rect x="368.0" y="226.4" width="28.3" height="11.5" fill="rgb(221,149,142)"/>
<rect x="396.0" y="226.4" width="28.3" height="11.5" fill="rgb(232,182,177)"/>
<rect x="424.0" y="226.4" width="28.3" height="11.5" fill="rgb(239,206,203)"/>
<rect x="452.0" y="226.4" width="28.3" height="11.5" fill="rgb(250,241,240)"/>
<rect x="480.0" y="226.4" width="28.3" height="11.5" fill="rgb(247,249,252)"/>
<rect x="508.0" y="226.4" width="28.3" height="11.5" fill="rgb(254,254,255)"/>
<rect x="536.0" y="226.4" width="28.3" height="11.5" fill="rgb(253,253,254)"/>
<rect x="564.0" y="226.4" width="28.3" height="11.5" fill="rgb(237,243,248)"/>
<rect x="592.0" y="226.4" width="28.3" height="11.5" fill="rgb(251,252,254)"/>
<rect x="620.0" y="226.4" width="28.3" height="11.5" fill="rgb(242,246,250)"/>
<rect x="648.0" y="226.4" width="28.3" height="11.5" fill="rgb(247,250,252)"/>
<rect x="676.0" y="226.4" width="28.3" height="11.5" fill="rgb(252,253,254)"/>
<rect x="704.0" y="226.4" width="28.3" height="11.5" fill="rgb(248,234,232)"/>
<rect x="732.0" y="226.4" width="28.3" height="11.5" fill="rgb(228,169,163)"/>
<rect x="760.0" y="226.4" width="28.3" height="11.5" fill="rgb(192,57,43)"/>
<rect x="788.0" y="226.4" width="28.3" height="11.5" fill="rgb(192,57,43)"/>
<rect x="816.0" y="226.4" width="28.3" height="11.5" fill="rgb(192,57,43)"/>
<rect x="60.0" y="215.2" width="28.3" height="11.5" fill="rgb(192,57,43)"/>
<rect x="88.0" y="215.2" width="28.3" height="11.5" fill="rgb(192,57,43)"/>
<rect x="116.0" y="215.2" width="28.3" height="11.5" fill="rgb(192,57,43)"/>
<rect x="144.0" y="215.2" width="28.3" height="11.5" fill="rgb(192,57,43)"/>
<rect x="172.0" y="215.2" width="28.3" height="11.5" fill="rgb(192,57,43)"/>
<rect x="200.0" y="215.2" width="28.3" height="11.5" fill="rgb(192,57,43)"/>
<rect x="228.0" y="215.2" width="28.3" height="11.5" fill="rgb(192,57,43)"/>
<rect x="256.0" y="215.2" width="28.3" height="11.5" fill="rgb(192,57,43)"/>
<rect x="284.0" y="215.2" width="28.3" height="11.5" fill="rgb(192,57,43)"/>
<rect x="312.0" y="215.2" width="28.3" height="11.5" fill="rgb(192,57,43)"/>
<rect x="340.0" y="215.2" width="28.3" height="11.5" fill="rgb(194,63,49)"/>
<rect x="368.0" y="215.2" width="28.3" height="11.5" fill="rgb(211,117,107)"/>
<rect x="396.0" y="215.2" width="28.3" height="11.5" fill="rgb(225,162,156)"/>
<rect x="424.0" y="215.2" width="28.3" height="11.5" fill="rgb(237,198,194)"/>
<rect x="452.0" y="215.2" width="28.3" height="11.5" fill="rgb(245,224,222)"/>
<rect x="480.0" y="215.2" width="28.3" height="11.5" fill="rgb(255,255,255)"/>
<rect x="508.0" y="215.2" width="28.3" height="11.5" fill="rgb(255,254,254)"/>
<rect x="536.0" y="215.2" width="28.3" height="11.5" fill="rgb(244,247,251)"/>
<rect x="564.0" y="215.2" width="28.3" height="11.5" fill="rgb(238,243,249)"/>
<rect x="592.0" y="215.2" width="28.3" height="11.5" fill="rgb(246,249,252)"/>
<rect x="620.0" y="215.2" width="28.3" height="11.5" fill="rgb(241,245,250)"/>
<rect x="648.0" y="215.2" width="28.3" height="11.5" fill="rgb(249,251,253)"/>
<rect x="676.0" y="215.2" width="28.3" height="11.5" fill="rgb(253,248,247)"/>
<rect x="704.0" y="215.2" width="28.3" height="11.5" fill="rgb(243,218,215)"/>
<rect x="732.0" y="215.2" width="28.3" height="11.5" fill="rgb(225,161,154)"/>
<rect x="760.0" y="215.2" width="28.3" height="11.5" fill="rgb(192,57,43)"/>
<rect x="788.0" y="215.2" width="28.3" height="11.5" fill="rgb(192,57,43)"/>
<rect x="816.0" y="215.2" width="28.3" height="11.5" fill="rgb(192,57,43)"/>
<rect x="60.0" y="204.0" width="28.3" height="11.5" fill="rgb(192,57,43)"/>
<rect x="88.0" y="204.0" width="28.3" height="11.5" fill="rgb(192,57,43)"/>
<rect x="116.0" y="204.0" width="28.3" height="11.5" fill="rgb(192,57,43)"/>
<rect x="144.0" y="204.0" width="28.3" height="11.5" fill="rgb(192,57,43)"/>
<rect x="172.0" y="204.0" width="28.3" height="11.5" fill="rgb(192,57,43)"/>
<rect x="200.0" y="204.0" width="28.3" height="11.5" fill="rgb(192,57,43)"/>
<rect x="228.0" y="204.0" width="28.3" height="11.5" fill="rgb(192,57,43)"/>
<rect x="256.0" y="204.0" width="28.3" height="11.5" fill="rgb(192,57,43)"/>
<rect x="284.0" y="204.0" width="28.3" height="11.5" fill="rgb(192,57,43)"/>
<rect x="312.0" y="204.0" width="28.3" height="11.5" fill="rgb(192,57,43)"/>
<rect x="340.0" y="204.0" width="28.3" height="11.5" fill="rgb(192,57,43)"/>
<rect x="368.0" y="204.0" width="28.3" height="11.5" fill="rgb(199,80,68)"/>
<rect x="396.0" y="204.0" width="28.3" height="11.5" fill="rgb(216,133,124)"/>
<rect x="424.0" y="204.0" width="28.3" height="11.5" fill="rgb(233,185,180)"/>
<rect x="452.0" y="204.0" width="28.3" height="11.5" fill="rgb(241,212,209)"/>
<rect x="480.0" y="204.0" width="28.3" height="11.5" fill="rgb(250,238,237)"/>
<rect x="508.0" y="204.0" width="28.3" height="11.5" fill="rgb(254,251,251)"/>
<rect x="536.0" y="204.0" width="28.3" height="11.5" fill="rgb(252,253,254)"/>
<rect x="564.0" y="204.0" width="28.3" height="11.5" fill="rgb(236,242,248)"/>
<rect x="592.0" y="204.0" width="28.3" height="11.5" fill="rgb(241,245,250)"/>
<rect x="620.0" y="204.0" width="28.3" height="11.5" fill="rgb(224,233,243)"/>
<rect x="648.0" y="204.0" width="28.3" height="11.5" fill="rgb(231,239,246)"/>
<rect x="676.0" y="204.0" width="28.3" height="11.5" fill="rgb(251,241,240)"/>
<rect x="704.0" y="204.0" width="28.3" height="11.5" fill="rgb(240,209,206)"/>
<rect x="732.0" y="204.0" width="28.3" height="11.5" fill="rgb(214,126,117)"/>
<rect x="760.0" y="204.0" width="28.3" height="11.5" fill="rgb(192,57,43)"/>
<rect x="788.0" y="204.0" width="28.3" height="11.5" fill="rgb(192,57,43)"/>
<rect x="816.0" y="204.0" width="28.3" height="11.5" fill="rgb(192,57,43)"/>
<rect x="60.0" y="192.8" width="28.3" height="11.5" fill="rgb(192,57,43)"/>
<rect x="88.0" y="192.8" width="28.3" height="11.5" fill="rgb(192,57,43)"/>
<rect x="116.0" y="192.8" width="28.3" height="11.5" fill="rgb(192,57,43)"/>
<rect x="144.0" y="192.8" width="28.3" height="11.5" fill="rgb(192,57,43)"/>
<rect x="172.0" y="192.8" width="28.3" height="11.5" fill="rgb(192,57,43)"/>
<rect x="200.0" y="192.8" width="28.3" height="11.5" fill="rgb(192,57,43)"/>
<rect x="228.0" y="192.8" width="28.3" height="11.5" fill="rgb(192,57,43)"/>
<rect x="256.0" y="192.8" width="28.3" height="11.5" fill="rgb(192,57,43)"/>
<rect x="284.0" y="192.8" width="28.3" height="11.5" fill="rgb(192,57,43)"/>
<rect x="312.0" y="192.8" width="28.3" height="11.5" fill="rgb(192,57,43)"/>
<rect x="340.0" y="192.8" width="28.3" height="11.5" fill="rgb(192,57,43)"/>
<rect x="368.0" y="192.8" width="28.3" height="11.5" fill="rgb(192,57,43)"/>
<rect x="396.0" y="192.8" width="28.3" height="11.5" fill="rgb(209,109,99)"/>
<rect x="424.0" y="192.8" width="28.3" height="11.5" fill="rgb(224,158,151)"/>
<rect x="452.0" y="192.8" width="28.3" height="11.5" fill="rgb(235,191,187)"/>
<rect x="480.0" y="192.8" width="28.3" height="11.5" fill="rgb(247,229,227)"/>
<rect x="508.0" y="192.8" width="28.3" height="11.5" fill="rgb(254,252,252)"/>
<rect x="536.0" y="192.8" width="28.3" height="11.5" fill="rgb(254,254,255)"/>
<rect x="564.0" y="192.8" width="28.3" height="11.5" fill="rgb(239,244,249)"/>
<rect x="592.0" y="192.8" width="28.3" height="11.5" fill="rgb(230,238,246)"/>
<rect x="620.0" y="192.8" width="28.3" height="11.5" fill="rgb(218,229,241)"/>
<rect x="648.0" y="192.8" width="28.3" height="11.5" fill="rgb(230,238,246)"/>
<rect x="676.0" y="192.8" width="28.3" height="11.5" fill="rgb(248,234,233)"/>
<rect x="704.0" y="192.8" width="28.3" height="11.5" fill="rgb(237,198,194)"/>
<rect x="732.0" y="192.8" width="28.3" height="11.5" fill="rgb(214,127,118)"/>
<rect x="760.0" y="192.8" width="28.3" height="11.5" fill="rgb(192,57,43)"/>
<rect x="788.0" y="192.8" width="28.3" height="11.5" fill="rgb(192,57,43)"/>
<rect x="816.0" y="192.8" width="28.3" height="11.5" fill="rgb(192,57,43)"/>
<rect x="60.0" y="181.6" width="28.3" height="11.5" fill="rgb(192,57,43)"/>
<rect x="88.0" y="181.6" width="28.3" height="11.5" fill="rgb(192,57,43)"/>
<rect x="116.0" y="181.6" width="28.3" height="11.5" fill="rgb(192,57,43)"/>
<rect x="144.0" y="181.6" width="28.3" height="11.5" fill="rgb(192,57,43)"/>
<rect x="172.0" y="181.6" width="28.3" height="11.5" fill="rgb(192,57,43)"/>
<rect x="200.0" y="181.6" width="28.3" height="11.5" fill="rgb(192,57,43)"/>
<rect x="228.0" y="181.6" width="28.3" height="11.5" fill="rgb(192,57,43)"/>
<rect x="256.0" y="181.6" width="28.3" height="11.5" fill="rgb(192,57,43)"/>
<rect x="284.0" y="181.6" width="28.3" height="11.5" fill="rgb(192,57,43)"/>
<rect x="312.0" y="181.6" width="28.3" height="11.5" fill="rgb(192,57,43)"/>
<rect x="340.0" y="181.6" width="28.3" height="11.5" fill="rgb(192,57,43)"/>
<rect x="368.0" y="181.6" width="28.3" height="11.5" fill="rgb(192,57,43)"/>
<rect x="396.0" y="181.6" width="28.3" height="11.5" fill="rgb(201,85,73)"/>
<rect x="424.0" y="181.6" width="28.3" height="11.5" fill="rgb(219,140,132)"/>
<rect x="452.0" y="181.6" width="28.3" height="11.5" fill="rgb(235,193,189)"/>
<rect x="480.0" y="181.6" width="28.3" height="11.5" fill="rgb(248,234,232)"/>
<rect x="508.0" y="181.6" width="28.3" height="11.5" fill="rgb(254,253,253)"/>
<rect x="536.0" y="181.6" width="28.3" height="11.5" fill="rgb(254,252,251)"/>
<rect x="564.0" y="181.6" width="28.3" height="11.5" fill="rgb(231,239,246)"/>
<rect x="592.0" y="181.6" width="28.3" height="11.5" fill="rgb(215,228,240)"/>
<rect x="620.0" y="181.6" width="28.3" height="11.5" fill="rgb(222,232,243)"/>
<rect x="648.0" y="181.6" width="28.3" height="11.5" fill="rgb(241,245,250)"/>
<rect x="676.0" y="181.6" width="28.3" height="11.5" fill="rgb(247,230,229)"/>
<rect x="704.0" y="181.6" width="28.3" height="11.5" fill="rgb(236,194,189)"/>
<rect x="732.0" y="181.6" width="28.3" height="11.5" fill="rgb(211,118,108)"/>
<rect x="760.0" y="181.6" width="28.3" height="11.5" fill="rgb(192,57,43)"/>
<rect x="788.0" y="181.6" width="28.3" height="11.5" fill="rgb(192,57,43)"/>
<rect x="816.0" y="181.6" width="28.3" height="11.5" fill="rgb(192,57,43)"/>
<rect x="60.0" y="170.4" width="28.3" height="11.5" fill="rgb(192,57,43)"/>
<rect x="88.0" y="170.4" width="28.3" height="11.5" fill="rgb(192,57,43)"/>
<rect x="116.0" y="170.4" width="28.3" height="11.5" fill="rgb(192,57,43)"/>
<rect x="144.0" y="170.4" width="28.3" height="11.5" fill="rgb(192,57,43)"/>
<rect x="172.0" y="170.4" width="28.3" height="11.5" fill="rgb(192,57,43)"/>
<rect x="200.0" y="170.4" width="28.3" height="11.5" fill="rgb(192,57,43)"/>
<rect x="228.0" y="170.4" width="28.3" height="11.5" fill="rgb(192,57,43)"/>
<rect x="256.0" y="170.4" width="28.3" height="11.5" fill="rgb(192,57,43)"/>
<rect x="284.0" y="170.4" width="28.3" height="11.5" fill="rgb(192,57,43)"/>
<rect x="312.0" y="170.4" width="28.3" height="11.5" fill="rgb(192,57,43)"/>
<rect x="340.0" y="170.4" width="28.3" height="11.5" fill="rgb(192,57,43)"/>
<rect x="368.0" y="170.4" width="28.3" height="11.5" fill="rgb(192,57,43)"/>
<rect x="396.0" y="170.4" width="28.3" height="11.5" fill="rgb(194,62,49)"/>
<rect x="424.0" y="170.4" width="28.3" height="11.5" fill="rgb(214,126,117)"/>
<rect x="452.0" y="170.4" width="28.3" height="11.5" fill="rgb(230,175,170)"/>
<rect x="480.0" y="170.4" width="28.3" height="11.5" fill="rgb(246,228,226)"/>
<rect x="508.0" y="170.4" width="28.3" height="11.5" fill="rgb(254,252,251)"/>
<rect x="536.0" y="170.4" width="28.3" height="11.5" fill="rgb(250,252,253)"/>
<rect x="564.0" y="170.4" width="28.3" height="11.5" fill="rgb(241,246,250)"/>
<rect x="592.0" y="170.4" width="28.3" height="11.5" fill="rgb(214,226,239)"/>
<rect x="620.0" y="170.4" width="28.3" height="11.5" fill="rgb(217,229,241)"/>
<rect x="648.0" y="170.4" width="28.3" height="11.5" fill="rgb(245,248,251)"/>
<rect x="676.0" y="170.4" width="28.3" height="11.5" fill="rgb(248,231,230)"/>
<rect x="704.0" y="170.4" width="28.3" height="11.5" fill="rgb(234,188,184)"/>
<rect x="732.0" y="170.4" width="28.3" height="11.5" fill="rgb(210,113,103)"/>
<rect x="760.0" y="170.4" width="28.3" height="11.5" fill="rgb(192,57,43)"/>
<rect x="788.0" y="170.4" width="28.3" height="11.5" fill="rgb(192,57,43)"/>
<rect x="816.0" y="170.4" width="28.3" height="11.5" fill="rgb(192,57,43)"/>
<rect x="60.0" y="159.2" width="28.3" height="11.5" fill="rgb(192,57,43)"/>
<rect x="88.0" y="159.2" width="28.3" height="11.5" fill="rgb(192,57,43)"/>
<rect x="116.0" y="159.2" width="28.3" height="11.5" fill="rgb(192,57,43)"/>
<rect x="144.0" y="159.2" width="28.3" height="11.5" fill="rgb(192,57,43)"/>
<rect x="172.0" y="159.2" width="28.3" height="11.5" fill="rgb(192,57,43)"/>
<rect x="200.0" y="159.2" width="28.3" height="11.5" fill="rgb(192,57,43)"/>
<rect x="228.0" y="159.2" width="28.3" height="11.5" fill="rgb(192,57,43)"/>
<rect x="256.0" y="159.2" width="28.3" height="11.5" fill="rgb(192,57,43)"/>
<rect x="284.0" y="159.2" width="28.3" height="11.5" fill="rgb(192,57,43)"/>
<rect x="312.0" y="159.2" width="28.3" height="11.5" fill="rgb(192,57,43)"/>
<rect x="340.0" y="159.2" width="28.3" height="11.5" fill="rgb(192,57,43)"/>
<rect x="368.0" y="159.2" width="28.3" height="11.5" fill="rgb(192,57,43)"/>
<rect x="396.0" y="159.2" width="28.3" height="11.5" fill="rgb(192,57,43)"/>
<rect x="424.0" y="159.2" width="28.3" height="11.5" fill="rgb(207,105,94)"/>
<rect x="452.0" y="159.2" width="28.3" height="11.5" fill="rgb(228,169,163)"/>
<rect x="480.0" y="159.2" width="28.3" height="11.5" fill="rgb(242,213,210)"/>
<rect x="508.0" y="159.2" width="28.3" height="11.5" fill="rgb(253,248,248)"/>
<rect x="536.0" y="159.2" width="28.3" height="11.5" fill="rgb(251,252,253)"/>
<rect x="564.0" y="159.2" width="28.3" height="11.5" fill="rgb(237,242,248)"/>
<rect x="592.0" y="159.2" width="28.3" height="11.5" fill="rgb(224,233,243)"/>
<rect x="620.0" y="159.2" width="28.3" height="11.5" fill="rgb(227,236,245)"/>
<rect x="648.0" y="159.2" width="28.3" height="11.5" fill="rgb(242,246,250)"/>
<rect x="676.0" y="159.2" width="28.3" height="11.5" fill="rgb(244,221,219)"/>
<rect x="704.0" y="159.2" width="28.3" height="11.5" fill="rgb(229,174,169)"/>
<rect x="732.0" y="159.2" width="28.3" height="11.5" fill="rgb(204,96,84)"/>
<rect x="760.0" y="159.2" width="28.3" height="11.5" fill="rgb(192,57,43)"/>
<rect x="788.0" y="159.2" width="28.3" height="11.5" fill="rgb(192,57,43)"/>
<rect x="816.0" y="159.2" width="28.3" height="11.5" fill="rgb(192,57,43)"/>
<rect x="60.0" y="148.0" width="28.3" height="11.5" fill="rgb(192,57,43)"/>
<rect x="88.0" y="148.0" width="28.3" height="11.5" fill="rgb(192,57,43)"/>
<rect x="116.0" y="148.0" width="28.3" height="11.5" fill="rgb(192,57,43)"/>
<rect x="144.0" y="148.0" width="28.3" height="11.5" fill="rgb(192,57,43)"/>
<rect x="172.0" y="148.0" width="28.3" height="11.5" fill="rgb(192,57,43)"/>
<rect x="200.0" y="148.0" width="28.3" height="11.5" fill="rgb(192,57,43)"/>
<rect x="228.0" y="148.0" width="28.3" height="11.5" fill="rgb(192,57,43)"/>
<rect x="256.0" y="148.0" width="28.3" height="11.5" fill="rgb(192,57,43)"/>
<rect x="284.0" y="148.0" width="28.3" height="11.5" fill="rgb(192,57,43)"/>
<rect x="312.0" y="148.0" width="28.3" height="11.5" fill="rgb(192,57,43)"/>
<rect x="340.0" y="148.0" width="28.3" height="11.5" fill="rgb(192,57,43)"/>
<rect x="368.0" y="148.0" width="28.3" height="11.5" fill="rgb(192,57,43)"/>
<rect x="396.0" y="148.0" width="28.3" height="11.5" fill="rgb(192,57,43)"/>
<rect x="424.0" y="148.0" width="28.3" height="11.5" fill="rgb(197,73,61)"/>
<rect x="452.0" y="148.0" width="28.3" height="11.5" fill="rgb(225,159,153)"/>
<rect x="480.0" y="148.0" width="28.3" height="11.5" fill="rgb(238,202,198)"/>
<rect x="508.0" y="148.0" width="28.3" height="11.5" fill="rgb(250,241,240)"/>
<rect x="536.0" y="148.0" width="28.3" height="11.5" fill="rgb(254,251,251)"/>
<rect x="564.0" y="148.0" width="28.3" height="11.5" fill="rgb(240,245,249)"/>
<rect x="592.0" y="148.0" width="28.3" height="11.5" fill="rgb(222,232,242)"/>
<rect x="620.0" y="148.0" width="28.3" height="11.5" fill="rgb(233,240,247)"/>
<rect x="648.0" y="148.0" width="28.3" height="11.5" fill="rgb(246,249,252)"/>
<rect x="676.0" y="148.0" width="28.3" height="11.5" fill="rgb(248,234,233)"/>
<rect x="704.0" y="148.0" width="28.3" height="11.5" fill="rgb(226,165,158)"/>
<rect x="732.0" y="148.0" width="28.3" height="11.5" fill="rgb(205,97,85)"/>
<rect x="760.0" y="148.0" width="28.3" height="11.5" fill="rgb(192,57,43)"/>
<rect x="788.0" y="148.0" width="28.3" height="11.5" fill="rgb(192,57,43)"/>
<rect x="816.0" y="148.0" width="28.3" height="11.5" fill="rgb(192,57,43)"/>
<rect x="60.0" y="136.8" width="28.3" height="11.5" fill="rgb(192,57,43)"/>
<rect x="88.0" y="136.8" width="28.3" height="11.5" fill="rgb(192,57,43)"/>
<rect x="116.0" y="136.8" width="28.3" height="11.5" fill="rgb(192,57,43)"/>
<rect x="144.0" y="136.8" width="28.3" height="11.5" fill="rgb(192,57,43)"/>
<rect x="172.0" y="136.8" width="28.3" height="11.5" fill="rgb(192,57,43)"/>
<rect x="200.0" y="136.8" width="28.3" height="11.5" fill="rgb(192,57,43)"/>
<rect x="228.0" y="136.8" width="28.3" height="11.5" fill="rgb(192,57,43)"/>
<rect x="256.0" y="136.8" width="28.3" height="11.5" fill="rgb(192,57,43)"/>
<rect x="284.0" y="136.8" width="28.3" height="11.5" fill="rgb(192,57,43)"/>
<rect x="312.0" y="136.8" width="28.3" height="11.5" fill="rgb(192,57,43)"/>
<rect x="340.0" y="136.8" width="28.3" height="11.5" fill="rgb(192,57,43)"/>
<rect x="368.0" y="136.8" width="28.3" height="11.5" fill="rgb(192,57,43)"/>
<rect x="396.0" y="136.8" width="28.3" height="11.5" fill="rgb(192,57,43)"/>
<rect x="424.0" y="136.8" width="28.3" height="11.5" fill="rgb(193,61,48)"/>
<rect x="452.0" y="136.8" width="28.3" height="11.5" fill="rgb(220,145,138)"/>
<rect x="480.0" y="136.8" width="28.3" height="11.5" fill="rgb(236,194,189)"/>
<rect x="508.0" y="136.8" width="28.3" height="11.5" fill="rgb(252,244,244)"/>
<rect x="536.0" y="136.8" width="28.3" height="11.5" fill="rgb(250,252,253)"/>
<rect x="564.0" y="136.8" width="28.3" height="11.5" fill="rgb(247,249,252)"/>
<rect x="592.0" y="136.8" width="28.3" height="11.5" fill="rgb(238,244,249)"/>
<rect x="620.0" y="136.8" width="28.3" height="11.5" fill="rgb(244,247,251)"/>
<rect x="648.0" y="136.8" width="28.3" height="11.5" fill="rgb(255,255,255)"/>
<rect x="676.0" y="136.8" width="28.3" height="11.5" fill="rgb(245,224,221)"/>
<rect x="704.0" y="136.8" width="28.3" height="11.5" fill="rgb(224,159,152)"/>
<rect x="732.0" y="136.8" width="28.3" height="11.5" fill="rgb(199,78,66)"/>
<rect x="760.0" y="136.8" width="28.3" height="11.5" fill="rgb(192,57,43)"/>
<rect x="788.0" y="136.8" width="28.3" height="11.5" fill="rgb(192,57,43)"/>
<rect x="816.0" y="136.8" width="28.3" height="11.5" fill="rgb(192,57,43)"/>
<rect x="60.0" y="125.6" width="28.3" height="11.5" fill="rgb(192,57,43)"/>
<rect x="88.0" y="125.6" width="28.3" height="11.5" fill="rgb(192,57,43)"/>
<rect x="116.0" y="125.6" width="28.3" height="11.5" fill="rgb(192,57,43)"/>
<rect x="144.0" y="125.6" width="28.3" height="11.5" fill="rgb(192,57,43)"/>
<rect x="172.0" y="125.6" width="28.3" height="11.5" fill="rgb(192,57,43)"/>
<rect x="200.0" y="125.6" width="28.3" height="11.5" fill="rgb(192,57,43)"/>
<rect x="228.0" y="125.6" width="28.3" height="11.5" fill="rgb(192,57,43)"/>
<rect x="256.0" y="125.6" width="28.3" height="11.5" fill="rgb(192,57,43)"/>
<rect x="284.0" y="125.6" width="28.3" height="11.5" fill="rgb(192,57,43)"/>
<rect x="312.0" y="125.6" width="28.3" height="11.5" fill="rgb(192,57,43)"/>
<rect x="340.0" y="125.6" width="28.3" height="11.5" fill="rgb(192,57,43)"/>
<rect x="368.0" y="125.6" width="28.3" height="11.5" fill="rgb(192,57,43)"/>
<rect x="396.0" y="125.6" width="28.3" height="11.5" fill="rgb(192,57,43)"/>
<rect x="424.0" y="125.6" width="28.3" height="11.5" fill="rgb(192,57,43)"/>
<rect x="452.0" y="125.6" width="28.3" height="11.5" fill="rgb(214,127,118)"/>
<rect x="480.0" y="125.6" width="28.3" height="11.5" fill="rgb(228,170,164)"/>
<rect x="508.0" y="125.6" width="28.3" height="11.5" fill="rgb(248,233,232)"/>
<rect x="536.0" y="125.6" width="28.3" height="11.5" fill="rgb(252,253,254)"/>
<rect x="564.0" y="125.6" width="28.3" height="11.5" fill="rgb(242,246,250)"/>
<rect x="592.0" y="125.6" width="28.3" height="11.5" fill="rgb(231,238,246)"/>
<rect x="620.0" y="125.6" width="28.3" height="11.5" fill="rgb(248,250,252)"/>
<rect x="648.0" y="125.6" width="28.3" height="11.5" fill="rgb(254,252,252)"/>
<rect x="676.0" y="125.6" width="28.3" height="11.5" fill="rgb(243,218,215)"/>
<rect x="704.0" y="125.6" width="28.3" height="11.5" fill="rgb(222,151,144)"/>
<rect x="732.0" y="125.6" width="28.3" height="11.5" fill="rgb(193,60,46)"/>
<rect x="760.0" y="125.6" width="28.3" height="11.5" fill="rgb(192,57,43)"/>
<rect x="788.0" y="125.6" width="28.3" height="11.5" fill="rgb(192,57,43)"/>
<rect x="816.0" y="125.6" width="28.3" height="11.5" fill="rgb(192,57,43)"/>
<rect x="60.0" y="114.4" width="28.3" height="11.5" fill="rgb(192,57,43)"/>
<rect x="88.0" y="114.4" width="28.3" height="11.5" fill="rgb(192,57,43)"/>
<rect x="116.0" y="114.4" width="28.3" height="11.5" fill="rgb(192,57,43)"/>
<rect x="144.0" y="114.4" width="28.3" height="11.5" fill="rgb(192,57,43)"/>
<rect x="172.0" y="114.4" width="28.3" height="11.5" fill="rgb(192,57,43)"/>
<rect x="200.0" y="114.4" width="28.3" height="11.5" fill="rgb(192,57,43)"/>
<rect x="228.0" y="114.4" width="28.3" height="11.5" fill="rgb(192,57,43)"/>
<rect x="256.0" y="114.4" width="28.3" height="11.5" fill="rgb(192,57,43)"/>
<rect x="284.0" y="114.4" width="28.3" height="11.5" fill="rgb(192,57,43)"/>
<rect x="312.0" y="114.4" width="28.3" height="11.5" fill="rgb(192,57,43)"/>
<rect x="340.0" y="114.4" width="28.3" height="11.5" fill="rgb(192,57,43)"/>
<rect x="368.0" y="114.4" width="28.3" height="11.5" fill="rgb(192,57,43)"/>
<rect x="396.0" y="114.4" width="28.3" height="11.5" fill="rgb(192,57,43)"/>
<rect x="424.0" y="114.4" width="28.3" height="11.5" fill="rgb(192,57,43)"/>
<rect x="452.0" y="114.4" width="28.3" height="11.5" fill="rgb(205,98,87)"/>
<rect x="480.0" y="114.4" width="28.3" height="11.5" fill="rgb(228,171,165)"/>
<rect x="508.0" y="114.4" width="28.3" height="11.5" fill="rgb(244,221,219)"/>
<rect x="536.0" y="114.4" width="28.3" height="11.5" fill="rgb(255,254,254)"/>
<rect x="564.0" y="114.4" width="28.3" height="11.5" fill="rgb(242,246,250)"/>
<rect x="592.0" y="114.4" width="28.3" height="11.5" fill="rgb(234,241,247)"/>
<rect x="620.0" y="114.4" width="28.3" height="11.5" fill="rgb(255,255,255)"/>
<rect x="648.0" y="114.4" width="28.3" height="11.5" fill="rgb(250,238,237)"/>
<rect x="676.0" y="114.4" width="28.3" height="11.5" fill="rgb(240,208,204)"/>
<rect x="704.0" y="114.4" width="28.3" height="11.5" fill="rgb(218,140,131)"/>
<rect x="732.0" y="114.4" width="28.3" height="11.5" fill="rgb(192,57,43)"/>
<rect x="760.0" y="114.4" width="28.3" height="11.5" fill="rgb(192,57,43)"/>
<rect x="788.0" y="114.4" width="28.3" height="11.5" fill="rgb(192,57,43)"/>
<rect x="816.0" y="114.4" width="28.3" height="11.5" fill="rgb(192,57,43)"/>
<rect x="60.0" y="103.2" width="28.3" height="11.5" fill="rgb(192,57,43)"/>
<rect x="88.0" y="103.2" width="28.3" height="11.5" fill="rgb(192,57,43)"/>
<rect x="116.0" y="103.2" width="28.3" height="11.5" fill="rgb(192,57,43)"/>
<rect x="144.0" y="103.2" width="28.3" height="11.5" fill="rgb(192,57,43)"/>
<rect x="172.0" y="103.2" width="28.3" height="11.5" fill="rgb(192,57,43)"/>
<rect x="200.0" y="103.2" width="28.3" height="11.5" fill="rgb(192,57,43)"/>
<rect x="228.0" y="103.2" width="28.3" height="11.5" fill="rgb(192,57,43)"/>
<rect x="256.0" y="103.2" width="28.3" height="11.5" fill="rgb(192,57,43)"/>
<rect x="284.0" y="103.2" width="28.3" height="11.5" fill="rgb(192,57,43)"/>
<rect x="312.0" y="103.2" width="28.3" height="11.5" fill="rgb(192,57,43)"/>
<rect x="340.0" y="103.2" width="28.3" height="11.5" fill="rgb(192,57,43)"/>
<rect x="368.0" y="103.2" width="28.3" height="11.5" fill="rgb(192,57,43)"/>
<rect x="396.0" y="103.2" width="28.3" height="11.5" fill="rgb(192,57,43)"/>
<rect x="424.0" y="103.2" width="28.3" height="11.5" fill="rgb(192,57,43)"/>
<rect x="452.0" y="103.2" width="28.3" height="11.5" fill="rgb(202,88,76)"/>
<rect x="480.0" y="103.2" width="28.3" height="11.5" fill="rgb(222,151,144)"/>
<rect x="508.0" y="103.2" width="28.3" height="11.5" fill="rgb(240,208,205)"/>
<rect x="536.0" y="103.2" width="28.3" height="11.5" fill="rgb(255,254,254)"/>
<rect x="564.0" y="103.2" width="28.3" height="11.5" fill="rgb(235,241,248)"/>
<rect x="592.0" y="103.2" width="28.3" height="11.5" fill="rgb(247,250,252)"/>
<rect x="620.0" y="103.2" width="28.3" height="11.5" fill="rgb(250,251,253)"/>
<rect x="648.0" y="103.2" width="28.3" height="11.5" fill="rgb(246,228,226)"/>
<rect x="676.0" y="103.2" width="28.3" height="11.5" fill="rgb(236,196,191)"/>
<rect x="704.0" y="103.2" width="28.3" height="11.5" fill="rgb(219,142,134)"/>
<rect x="732.0" y="103.2" width="28.3" height="11.5" fill="rgb(192,57,43)"/>
<rect x="760.0" y="103.2" width="28.3" height="11.5" fill="rgb(192,57,43)"/>
<rect x="788.0" y="103.2" width="28.3" height="11.5" fill="rgb(192,57,43)"/>
<rect x="816.0" y="103.2" width="28.3" height="11.5" fill="rgb(192,57,43)"/>
<rect x="60.0" y="92.0" width="28.3" height="11.5" fill="rgb(192,57,43)"/>
<rect x="88.0" y="92.0" width="28.3" height="11.5" fill="rgb(192,57,43)"/>
<rect x="116.0" y="92.0" width="28.3" height="11.5" fill="rgb(192,57,43)"/>
<rect x="144.0" y="92.0" width="28.3" height="11.5" fill="rgb(192,57,43)"/>
<rect x="172.0" y="92.0" width="28.3" height="11.5" fill="rgb(192,57,43)"/>
<rect x="200.0" y="92.0" width="28.3" height="11.5" fill="rgb(192,57,43)"/>
<rect x="228.0" y="92.0" width="28.3" height="11.5" fill="rgb(192,57,43)"/>
<rect x="256.0" y="92.0" width="28.3" height="11.5" fill="rgb(192,57,43)"/>
<rect x="284.0" y="92.0" width="28.3" height="11.5" fill="rgb(192,57,43)"/>
<rect x="312.0" y="92.0" width="28.3" height="11.5" fill="rgb(192,57,43)"/>
<rect x="340.0" y="92.0" width="28.3" height="11.5" fill="rgb(192,57,43)"/>
<rect x="368.0" y="92.0" width="28.3" height="11.5" fill="rgb(192,57,43)"/>
<rect x="396.0" y="92.0" width="28.3" height="11.5" fill="rgb(192,57,43)"/>
<rect x="424.0" y="92.0" width="28.3" height="11.5" fill="rgb(192,57,43)"/>
<rect x="452.0" y="92.0" width="28.3" height="11.5" fill="rgb(195,68,55)"/>
<rect x="480.0" y="92.0" width="28.3" height="11.5" fill="rgb(217,136,127)"/>
<rect x="508.0" y="92.0" width="28.3" height="11.5" fill="rgb(237,199,195)"/>
<rect x="536.0" y="92.0" width="28.3" height="11.5" fill="rgb(249,236,235)"/>
<rect x="564.0" y="92.0" width="28.3" height="11.5" fill="rgb(247,249,252)"/>
<rect x="592.0" y="92.0" width="28.3" height="11.5" fill="rgb(246,249,252)"/>
<rect x="620.0" y="92.0" width="28.3" height="11.5" fill="rgb(253,249,248)"/>
<rect x="648.0" y="92.0" width="28.3" height="11.5" fill="rgb(241,211,208)"/>
<rect x="676.0" y="92.0" width="28.3" height="11.5" fill="rgb(233,187,182)"/>
<rect x="704.0" y="92.0" width="28.3" height="11.5" fill="rgb(217,135,126)"/>
<rect x="732.0" y="92.0" width="28.3" height="11.5" fill="rgb(192,57,43)"/>
<rect x="760.0" y="92.0" width="28.3" height="11.5" fill="rgb(192,57,43)"/>
<rect x="788.0" y="92.0" width="28.3" height="11.5" fill="rgb(192,57,43)"/>
<rect x="816.0" y="92.0" width="28.3" height="11.5" fill="rgb(192,57,43)"/>
<rect x="60.0" y="80.8" width="28.3" height="11.5" fill="rgb(192,57,43)"/>
<rect x="88.0" y="80.8" width="28.3" height="11.5" fill="rgb(192,57,43)"/>
<rect x="116.0" y="80.8" width="28.3" height="11.5" fill="rgb(192,57,43)"/>
<rect x="144.0" y="80.8" width="28.3" height="11.5" fill="rgb(192,57,43)"/>
<rect x="172.0" y="80.8" width="28.3" height="11.5" fill="rgb(192,57,43)"/>
<rect x="200.0" y="80.8" width="28.3" height="11.5" fill="rgb(192,57,43)"/>
<rect x="228.0" y="80.8" width="28.3" height="11.5" fill="rgb(192,57,43)"/>
<rect x="256.0" y="80.8" width="28.3" height="11.5" fill="rgb(192,57,43)"/>
<rect x="284.0" y="80.8" width="28.3" height="11.5" fill="rgb(192,57,43)"/>
<rect x="312.0" y="80.8" width="28.3" height="11.5" fill="rgb(192,57,43)"/>
<rect x="340.0" y="80.8" width="28.3" height="11.5" fill="rgb(192,57,43)"/>
<rect x="368.0" y="80.8" width="28.3" height="11.5" fill="rgb(192,57,43)"/>
<rect x="396.0" y="80.8" width="28.3" height="11.5" fill="rgb(192,57,43)"/>
<rect x="424.0" y="80.8" width="28.3" height="11.5" fill="rgb(192,57,43)"/>
<rect x="452.0" y="80.8" width="28.3" height="11.5" fill="rgb(192,57,43)"/>
<rect x="480.0" y="80.8" width="28.3" height="11.5" fill="rgb(211,118,108)"/>
<rect x="508.0" y="80.8" width="28.3" height="11.5" fill="rgb(232,183,177)"/>
<rect x="536.0" y="80.8" width="28.3" height="11.5" fill="rgb(250,239,238)"/>
<rect x="564.0" y="80.8" width="28.3" height="11.5" fill="rgb(252,246,246)"/>
<rect x="592.0" y="80.8" width="28.3" height="11.5" fill="rgb(251,243,242)"/>
<rect x="620.0" y="80.8" width="28.3" height="11.5" fill="rgb(247,231,230)"/>
<rect x="648.0" y="80.8" width="28.3" height="11.5" fill="rgb(239,205,201)"/>
<rect x="676.0" y="80.8" width="28.3" height="11.5" fill="rgb(230,175,170)"/>
<rect x="704.0" y="80.8" width="28.3" height="11.5" fill="rgb(214,125,116)"/>
<rect x="732.0" y="80.8" width="28.3" height="11.5" fill="rgb(192,57,43)"/>
<rect x="760.0" y="80.8" width="28.3" height="11.5" fill="rgb(192,57,43)"/>
<rect x="788.0" y="80.8" width="28.3" height="11.5" fill="rgb(192,57,43)"/>
<rect x="816.0" y="80.8" width="28.3" height="11.5" fill="rgb(192,57,43)"/>
<rect x="60.0" y="69.6" width="28.3" height="11.5" fill="rgb(192,57,43)"/>
<rect x="88.0" y="69.6" width="28.3" height="11.5" fill="rgb(192,57,43)"/>
<rect x="116.0" y="69.6" width="28.3" height="11.5" fill="rgb(192,57,43)"/>
<rect x="144.0" y="69.6" width="28.3" height="11.5" fill="rgb(192,57,43)"/>
<rect x="172.0" y="69.6" width="28.3" height="11.5" fill="rgb(192,57,43)"/>
<rect x="200.0" y="69.6" width="28.3" height="11.5" fill="rgb(192,57,43)"/>
<rect x="228.0" y="69.6" width="28.3" height="11.5" fill="rgb(192,57,43)"/>
<rect x="256.0" y="69.6" width="28.3" height="11.5" fill="rgb(192,57,43)"/>
<rect x="284.0" y="69.6" width="28.3" height="11.5" fill="rgb(192,57,43)"/>
<rect x="312.0" y="69.6" width="28.3" height="11.5" fill="rgb(192,57,43)"/>
<rect x="340.0" y="69.6" width="28.3" height="11.5" fill="rgb(192,57,43)"/>
<rect x="368.0" y="69.6" width="28.3" height="11.5" fill="rgb(192,57,43)"/>
<rect x="396.0" y="69.6" width="28.3" height="11.5" fill="rgb(192,57,43)"/>
<rect x="424.0" y="69.6" width="28.3" height="11.5" fill="rgb(192,57,43)"/>
<rect x="452.0" y="69.6" width="28.3" height="11.5" fill="rgb(192,57,43)"/>
<rect x="480.0" y="69.6" width="28.3" height="11.5" fill="rgb(208,106,95)"/>
<rect x="508.0" y="69.6" width="28.3" height="11.5" fill="rgb(227,167,161)"/>
<rect x="536.0" y="69.6" width="28.3" height="11.5" fill="rgb(243,219,216)"/>
<rect x="564.0" y="69.6" width="28.3" height="11.5" fill="rgb(247,229,227)"/>
<rect x="592.0" y="69.6" width="28.3" height="11.5" fill="rgb(246,227,225)"/>
<rect x="620.0" y="69.6" width="28.3" height="11.5" fill="rgb(244,220,217)"/>
<rect x="648.0" y="69.6" width="28.3" height="11.5" fill="rgb(237,197,193)"/>
<rect x="676.0" y="69.6" width="28.3" height="11.5" fill="rgb(227,168,161)"/>
<rect x="704.0" y="69.6" width="28.3" height="11.5" fill="rgb(210,112,102)"/>
<rect x="732.0" y="69.6" width="28.3" height="11.5" fill="rgb(192,57,43)"/>
<rect x="760.0" y="69.6" width="28.3" height="11.5" fill="rgb(192,57,43)"/>
<rect x="788.0" y="69.6" width="28.3" height="11.5" fill="rgb(192,57,43)"/>
<rect x="816.0" y="69.6" width="28.3" height="11.5" fill="rgb(192,57,43)"/>
<rect x="60.0" y="58.4" width="28.3" height="11.5" fill="rgb(192,57,43)"/>
<rect x="88.0" y="58.4" width="28.3" height="11.5" fill="rgb(192,57,43)"/>
<rect x="116.0" y="58.4" width="28.3" height="11.5" fill="rgb(192,57,43)"/>
<rect x="144.0" y="58.4" width="28.3" height="11.5" fill="rgb(192,57,43)"/>
<rect x="172.0" y="58.4" width="28.3" height="11.5" fill="rgb(192,57,43)"/>
<rect x="200.0" y="58.4" width="28.3" height="11.5" fill="rgb(192,57,43)"/>
<rect x="228.0" y="58.4" width="28.3" height="11.5" fill="rgb(192,57,43)"/>
<rect x="256.0" y="58.4" width="28.3" height="11.5" fill="rgb(192,57,43)"/>
<rect x="284.0" y="58.4" width="28.3" height="11.5" fill="rgb(192,57,43)"/>
<rect x="312.0" y="58.4" width="28.3" height="11.5" fill="rgb(192,57,43)"/>
<rect x="340.0" y="58.4" width="28.3" height="11.5" fill="rgb(192,57,43)"/>
<rect x="368.0" y="58.4" width="28.3" height="11.5" fill="rgb(192,57,43)"/>
<rect x="396.0" y="58.4" width="28.3" height="11.5" fill="rgb(192,57,43)"/>
<rect x="424.0" y="58.4" width="28.3" height="11.5" fill="rgb(192,57,43)"/>
<rect x="452.0" y="58.4" width="28.3" height="11.5" fill="rgb(192,57,43)"/>
<rect x="480.0" y="58.4" width="28.3" height="11.5" fill="rgb(202,88,76)"/>
<rect x="508.0" y="58.4" width="28.3" height="11.5" fill="rgb(220,145,137)"/>
<rect x="536.0" y="58.4" width="28.3" height="11.5" fill="rgb(238,201,197)"/>
<rect x="564.0" y="58.4" width="28.3" height="11.5" fill="rgb(244,220,218)"/>
<rect x="592.0" y="58.4" width="28.3" height="11.5" fill="rgb(246,228,226)"/>
<rect x="620.0" y="58.4" width="28.3" height="11.5" fill="rgb(243,218,215)"/>
<rect x="648.0" y="58.4" width="28.3" height="11.5" fill="rgb(236,195,191)"/>
<rect x="676.0" y="58.4" width="28.3" height="11.5" fill="rgb(224,156,149)"/>
<rect x="704.0" y="58.4" width="28.3" height="11.5" fill="rgb(205,98,87)"/>
<rect x="732.0" y="58.4" width="28.3" height="11.5" fill="rgb(192,57,43)"/>
<rect x="760.0" y="58.4" width="28.3" height="11.5" fill="rgb(192,57,43)"/>
<rect x="788.0" y="58.4" width="28.3" height="11.5" fill="rgb(192,57,43)"/>
<rect x="816.0" y="58.4" width="28.3" height="11.5" fill="rgb(192,57,43)"/>
<rect x="60.0" y="47.2" width="28.3" height="11.5" fill="rgb(192,57,43)"/>
<rect x="88.0" y="47.2" width="28.3" height="11.5" fill="rgb(192,57,43)"/>
<rect x="116.0" y="47.2" width="28.3" height="11.5" fill="rgb(192,57,43)"/>
<rect x="144.0" y="47.2" width="28.3" height="11.5" fill="rgb(192,57,43)"/>
<rect x="172.0" y="47.2" width="28.3" height="11.5" fill="rgb(192,57,43)"/>
<rect x="200.0" y="47.2" width="28.3" height="11.5" fill="rgb(192,57,43)"/>
<rect x="228.0" y="47.2" width="28.3" height="11.5" fill="rgb(192,57,43)"/>
<rect x="256.0" y="47.2" width="28.3" height="11.5" fill="rgb(192,57,43)"/>
<rect x="284.0" y="47.2" width="28.3" height="11.5" fill="rgb(192,57,43)"/>
<rect x="312.0" y="47.2" width="28.3" height="11.5" fill="rgb(192,57,43)"/>
<rect x="340.0" y="47.2" width="28.3" height="11.5" fill="rgb(192,57,43)"/>
<rect x="368.0" y="47.2" width="28.3" height="11.5" fill="rgb(192,57,43)"/>
<rect x="396.0" y="47.2" width="28.3" height="11.5" fill="rgb(192,57,43)"/>
<rect x="424.0" y="47.2" width="28.3" height="11.5" fill="rgb(192,57,43)"/>
<rect x="452.0" y="47.2" width="28.3" height="11.5" fill="rgb(192,57,43)"/>
<rect x="480.0" y="47.2" width="28.3" height="11.5" fill="rgb(196,70,57)"/>
<rect x="508.0" y="47.2" width="28.3" height="11.5" fill="rgb(219,142,134)"/>
<rect x="536.0" y="47.2" width="28.3" height="11.5" fill="rgb(235,192,187)"/>
<rect x="564.0" y="47.2" width="28.3" height="11.5" fill="rgb(244,222,219)"/>
<rect x="592.0" y="47.2" width="28.3" height="11.5" fill="rgb(242,215,212)"/>
<rect x="620.0" y="47.2" width="28.3" height="11.5" fill="rgb(239,205,201)"/>
<rect x="648.0" y="47.2" width="28.3" height="11.5" fill="rgb(232,183,178)"/>
<rect x="676.0" y="47.2" width="28.3" height="11.5" fill="rgb(224,157,150)"/>
<rect x="704.0" y="47.2" width="28.3" height="11.5" fill="rgb(203,90,79)"/>
<rect x="732.0" y="47.2" width="28.3" height="11.5" fill="rgb(192,57,43)"/>
<rect x="760.0" y="47.2" width="28.3" height="11.5" fill="rgb(192,57,43)"/>
<rect x="788.0" y="47.2" width="28.3" height="11.5" fill="rgb(192,57,43)"/>
<rect x="816.0" y="47.2" width="28.3" height="11.5" fill="rgb(192,57,43)"/>
<rect x="60.0" y="36.0" width="28.3" height="11.5" fill="rgb(192,57,43)"/>
<rect x="88.0" y="36.0" width="28.3" height="11.5" fill="rgb(192,57,43)"/>
<rect x="116.0" y="36.0" width="28.3" height="11.5" fill="rgb(192,57,43)"/>
<rect x="144.0" y="36.0" width="28.3" height="11.5" fill="rgb(192,57,43)"/>
<rect x="172.0" y="36.0" width="28.3" height="11.5" fill="rgb(192,57,43)"/>
<rect x="200.0" y="36.0" width="28.3" height="11.5" fill="rgb(192,57,43)"/>
<rect x="228.0" y="36.0" width="28.3" height="11.5" fill="rgb(192,57,43)"/>
<rect x="256.0" y="36.0" width="28.3" height="11.5" fill="rgb(192,57,43)"/>
<rect x="284.0" y="36.0" width="28.3" height="11.5" fill="rgb(192,57,43)"/>
<rect x="312.0" y="36.0" width="28.3" height="11.5" fill="rgb(192,57,43)"/>
<rect x="340.0" y="36.0" width="28.3" height="11.5" fill="rgb(192,57,43)"/>
<rect x="368.0" y="36.0" width="28.3" height="11.5" fill="rgb(192,57,43)"/>
<rect x="396.0" y="36.0" width="28.3" height="11.5" fill="rgb(192,57,43)"/>
<rect x="424.0" y="36.0" width="28.3" height="11.5" fill="rgb(192,57,43)"/>
<rect x="452.0" y="36.0" width="28.3" height="11.5" fill="rgb(192,57,43)"/>
<rect x="480.0" y="36.0" width="28.3" height="11.5" fill="rgb(192,57,43)"/>
<rect x="508.0" y="36.0" width="28.3" height="11.5" fill="rgb(215,130,121)"/>
<rect x="536.0" y="36.0" width="28.3" height="11.5" fill="rgb(233,185,180)"/>
<rect x="564.0" y="36.0" width="28.3" height="11.5" fill="rgb(242,213,210)"/>
<rect x="592.0" y="36.0" width="28.3" height="11.5" fill="rgb(241,210,207)"/>
<rect x="620.0" y="36.0" width="28.3" height="11.5" fill="rgb(237,200,196)"/>
<rect x="648.0" y="36.0" width="28.3" height="11.5" fill="rgb(233,185,180)"/>
<rect x="676.0" y="36.0" width="28.3" height="11.5" fill="rgb(220,144,136)"/>
<rect x="704.0" y="36.0" width="28.3" height="11.5" fill="rgb(200,82,69)"/>
<rect x="732.0" y="36.0" width="28.3" height="11.5" fill="rgb(192,57,43)"/>
<rect x="760.0" y="36.0" width="28.3" height="11.5" fill="rgb(192,57,43)"/>
<rect x="788.0" y="36.0" width="28.3" height="11.5" fill="rgb(192,57,43)"/>
<rect x="816.0" y="36.0" width="28.3" height="11.5" fill="rgb(192,57,43)"/>
<rect x="564.0" y="215.2" width="28.0" height="11.2" fill="none" stroke="#000" stroke-width="1.2"/>
<rect x="564.0" y="181.6" width="28.0" height="11.2" fill="none" stroke="#000" stroke-width="1.2"/>
<rect x="592.0" y="181.6" width="28.0" height="11.2" fill="none" stroke="#000" stroke-width="1.2"/>
<rect x="592.0" y="170.4" width="28.0" height="11.2" fill="none" stroke="#000" stroke-width="1.2"/>
<rect x="564.0" y="125.6" width="28.0" height="11.2" fill="none" stroke="#000" stroke-width="1.2"/>
<rect x="592.0" y="125.6" width="28.0" height="11.2" fill="none" stroke="#000" stroke-width="1.2"/>
<polyline points="494.0,240.3 662.0,86.3 690.0,214.8" fill="none" stroke="#1a7f37" stroke-width="2"/>
<rect x="60" y="36" width="784.0" height="224.0" fill="none" stroke="#333"/>
<text x="60.0" y="276" text-anchor="middle">0</text>
<text x="158.0" y="276" text-anchor="middle">70</text>
<text x="256.0" y="276" text-anchor="middle">140</text>
<text x="354.0" y="276" text-anchor="middle">210</text>
<text x="452.0" y="276" text-anchor="middle">280</text>
<text x="550.0" y="276" text-anchor="middle">350</text>
<text x="648.0" y="276" text-anchor="middle">420</text>
<text x="746.0" y="276" text-anchor="middle">490</text>
<text x="844.0" y="276" text-anchor="middle">560</text>
<text x="54" y="264.0" text-anchor="end">0</text>
<text x="54" y="208.0" text-anchor="end">10</text>
<text x="54" y="152.0" text-anchor="end">20</text>
<text x="54" y="96.0" text-anchor="end">30</text>
<text x="54" y="40.0" text-anchor="end">40</text>
<text x="452" y="296" text-anchor="middle">x (particle diameters)</text>
<text transform="translate(14 148) rotate(-90)" text-anchor="middle">y</text>
<rect x="874" y="36.0" width="14" height="4.5" fill="rgb(194,62,48)"/>
<rect x="874" y="40.0" width="14" height="4.5" fill="rgb(197,72,59)"/>
<rect x="874" y="44.0" width="14" height="4.5" fill="rgb(200,82,69)"/>
<rect x="874" y="48.0" width="14" height="4.5" fill="rgb(203,92,80)"/>
<rect x="874" y="52.0" width="14" height="4.5" fill="rgb(206,102,91)"/>
<rect x="874" y="56.0" width="14" height="4.5" fill="rgb(209,111,101)"/>
<rect x="874" y="60.0" width="14" height="4.5" fill="rgb(212,121,112)"/>
<rect x="874" y="64.0" width="14" height="4.5" fill="rgb(216,131,123)"/>
<rect x="874" y="68.0" width="14" height="4.5" fill="rgb(219,141,133)"/>
<rect x="874" y="72.0" width="14" height="4.5" fill="rgb(222,151,144)"/>
<rect x="874" y="76.0" width="14" height="4.5" fill="rgb(225,161,154)"/>
<rect x="874" y="80.0" width="14" height="4.5" fill="rgb(228,171,165)"/>
<rect x="874" y="84.0" width="14" height="4.5" fill="rgb(231,181,176)"/>
<rect x="874" y="88.0" width="14" height="4.5" fill="rgb(235,191,186)"/>
<rect x="874" y="92.0" width="14" height="4.5" fill="rgb(238,201,197)"/>
<rect x="874" y="96.0" width="14" height="4.5" fill="rgb(241,210,207)"/>
<rect x="874" y="100.0" width="14" height="4.5" fill="rgb(244,220,218)"/>
<rect x="874" y="104.0" width="14" height="4.5" fill="rgb(247,230,229)"/>
<rect x="874" y="108.0" width="14" height="4.5" fill="rgb(250,240,239)"/>
<rect x="874" y="112.0" width="14" height="4.5" fill="rgb(253,250,250)"/>
<rect x="874" y="116.0" width="14" height="4.5" fill="rgb(249,251,253)"/>
<rect x="874" y="120.0" width="14" height="4.5" fill="rgb(238,244,249)"/>
<rect x="874" y="124.0" width="14" height="4.5" fill="rgb(227,236,245)"/>
<rect x="874" y="128.0" width="14" height="4.5" fill="rgb(216,228,240)"/>
<rect x="874" y="132.0" width="14" height="4.5" fill="rgb(205,221,236)"/>
<rect x="874" y="136.0" width="14" height="4.5" fill="rgb(194,213,232)"/>
<rect x="874" y="140.0" width="14" height="4.5" fill="rgb(183,205,228)"/>
<rect x="874" y="144.0" width="14" height="4.5" fill="rgb(172,198,224)"/>
<rect x="874" y="148.0" width="14" height="4.5" fill="rgb(161,190,220)"/>
<rect x="874" y="152.0" width="14" height="4.5" fill="rgb(150,182,216)"/>
<rect x="874" y="156.0" width="14" height="4.5" fill="rgb(138,175,211)"/>
<rect x="874" y="160.0" width="14" height="4.5" fill="rgb(127,167,207)"/>
<rect x="874" y="164.0" width="14" height="4.5" fill="rgb(116,159,203)"/>
<rect x="874" y="168.0" width="14" height="4.5" fill="rgb(105,152,199)"/>
<rect x="874" y="172.0" width="14" height="4.5" fill="rgb(94,144,195)"/>
<rect x="874" y="176.0" width="14" height="4.5" fill="rgb(83,136,191)"/>
<rect x="874" y="180.0" width="14" height="4.5" fill="rgb(72,129,187)"/>
<rect x="874" y="184.0" width="14" height="4.5" fill="rgb(61,121,182)"/>
<rect x="874" y="188.0" width="14" height="4.5" fill="rgb(50,113,178)"/>
<rect x="874" y="192.0" width="14" height="4.5" fill="rgb(39,106,174)"/>
<text x="892" y="44">0.300</text>
<text x="892" y="196">-0.300</text>
<text x="874" y="212">u</text>
</svg>